<svg width="36" height="36" viewBox="0 0 36 36" fill="none" xmlns="http://www.w3.org/2000/svg">
<rect width="36" height="36" rx="18" fill="white"/>
<path d="M24.7663 12.2562C24.3753 11.8651 23.9111 11.5548 23.4002 11.3431C22.8893 11.1314 22.3417 11.0225 21.7887 11.0225C21.2357 11.0225 20.6881 11.1314 20.1772 11.3431C19.6663 11.5548 19.2021 11.8651 18.8112 12.2562L17.9998 13.0676L17.1884 12.2562C16.3987 11.4665 15.3277 11.0229 14.2109 11.0229C13.0941 11.0229 12.023 11.4665 11.2333 12.2562C10.4436 13.0459 10 14.117 10 15.2338C10 16.3506 10.4436 17.4216 11.2333 18.2113L12.0447 19.0227L17.9998 24.9778L23.9549 19.0227L24.7663 18.2113C25.1574 17.8204 25.4677 17.3562 25.6794 16.8453C25.891 16.3344 26 15.7868 26 15.2338C26 14.6807 25.891 14.1331 25.6794 13.6222C25.4677 13.1113 25.1574 12.6472 24.7663 12.2562Z" fill="none"/>
</svg>
