<svg width="24" height="24" viewBox="0 0 24 24" fill="none" xmlns="http://www.w3.org/2000/svg">
<g id="ic:baseline-whatsapp">
<path id="Vector" d="M19.174 4.55555C18.2411 3.58318 17.1298 2.81221 15.9051 2.28761C14.6804 1.76302 13.3667 1.4953 12.0407 1.50006C6.48467 1.50006 1.95641 6.17255 1.95641 11.9055C1.95641 13.743 2.4245 15.528 3.29962 17.103L1.875 22.5L7.21734 21.051C8.69284 21.8805 10.3515 22.3215 12.0407 22.3215C17.5967 22.3215 22.125 17.649 22.125 11.916C22.125 9.13354 21.0769 6.51905 19.174 4.55555ZM12.0407 20.5575C10.5347 20.5575 9.05917 20.1375 7.76683 19.35L7.46156 19.161L4.28668 20.022L5.13128 16.83L4.92776 16.5045C4.09105 15.1258 3.64676 13.5322 3.6456 11.9055C3.6456 7.13855 7.41068 3.25356 12.0305 3.25356C14.2692 3.25356 16.3756 4.15655 17.9529 5.79455C18.7339 6.59671 19.3528 7.55084 19.7738 8.60164C20.1947 9.65244 20.4094 10.779 20.4053 11.916C20.4256 16.683 16.6606 20.5575 12.0407 20.5575ZM16.6402 14.0895C16.3858 13.9635 15.1443 13.3335 14.9205 13.239C14.6864 13.155 14.5236 13.113 14.3506 13.365C14.1776 13.6275 13.6994 14.2155 13.5569 14.3835C13.4144 14.562 13.2618 14.583 13.0074 14.4465C12.753 14.3205 11.9389 14.037 10.9824 13.155C10.2294 12.462 9.73078 11.6115 9.57814 11.349C9.43568 11.0865 9.55779 10.95 9.69007 10.8135C9.80201 10.698 9.94447 10.509 10.0666 10.362C10.1887 10.215 10.2396 10.0995 10.321 9.93154C10.4024 9.75304 10.3617 9.60604 10.3006 9.48004C10.2396 9.35404 9.73078 8.07304 9.52726 7.54804C9.32374 7.04405 9.11005 7.10705 8.95741 7.09655H8.46897C8.29598 7.09655 8.03141 7.15955 7.79736 7.42204C7.57349 7.68454 6.92224 8.31454 6.92224 9.59554C6.92224 10.8765 7.82789 12.1155 7.95 12.2835C8.07211 12.462 9.73078 15.087 12.2544 16.2105C12.8548 16.4835 13.3229 16.641 13.6892 16.7565C14.2896 16.956 14.8391 16.9245 15.2766 16.8615C15.7651 16.788 16.7725 16.2315 16.976 15.6225C17.1897 15.0135 17.1897 14.499 17.1185 14.3835C17.0472 14.268 16.8946 14.2155 16.6402 14.0895Z" fill="#2B67F6"/>
</g>
</svg>
