<svg width="57" height="37" viewBox="0 0 57 37" fill="none" xmlns="http://www.w3.org/2000/svg">
<path d="M51.557 11.9689V19.6098C51.5416 20.5142 51.2169 20.8658 50.557 21.5C49.8972 22.1342 48.9824 22.0001 48.057 22C47.1439 21.9823 46.2017 22.1323 45.557 21.5C44.9123 20.8677 44.5878 20.5024 44.5728 19.6098V13.7961C44.7193 11.7621 44.3603 9.7237 43.5263 7.8547C43.1607 7.27288 42.638 6.8009 42.0156 6.49068C41.3933 6.18047 40.6955 6.04404 39.9989 6.0964C39.1774 6.0396 38.3557 6.20466 37.6237 6.57354C36.8917 6.94242 36.2775 7.50092 35.8484 8.18797C34.9783 9.59 34.555 11.831 34.555 14.9223V22C32.306 20.9042 29.9936 17.8332 27.6296 17V13.8766C27.6296 8.68213 26.0893 6.0964 23.0322 6.0964C22.1913 6.03398 21.3491 6.19941 20.5982 6.57449C19.8472 6.94958 19.2167 7.5198 18.7758 8.22244C18.557 9 18.6551 8.03113 18.057 10.5C18.057 10.5 12.8653 8.97226 10.557 9L10.557 3.51067C10.557 3.15656 10.6286 2.80593 10.7676 2.47892C10.9066 2.15191 11.1103 1.85494 11.367 1.60508C11.6237 1.35522 11.9284 1.15738 12.2636 1.02291C12.5988 0.888445 12.9578 0.820005 13.3201 0.821519H14.6958C15.4266 0.821512 16.1276 1.10447 16.6455 1.60845C17.1633 2.11244 17.4558 2.79641 17.4589 3.51067C18.4408 2.42706 19.5868 1.4969 20.857 0.752569C22.0324 0.214206 23.3224 -0.0419004 24.6195 0.00557951C26.2228 -0.0208619 27.8052 0.362952 29.2098 1.11893C30.6145 1.8749 31.7924 2.97675 32.6267 4.31512C33.6153 2.9435 34.9356 1.83221 36.4702 1.08028C38.0047 0.328358 39.7057 -0.0408433 41.4216 0.00557951C48.1786 0.00557951 51.557 3.99334 51.557 11.9689Z" fill="#2B67F6"/>
<rect x="44.557" y="14" width="7" height="13" rx="3.5" fill="#2B67F6"/>
<path d="M55.9391 29.7065C51.3921 32.5798 37.5189 40.1791 26.3207 33.9149C15.7223 27.9892 12.7764 13.1147 0.364078 14.0822C0.290903 14.0877 0.217914 14.0693 0.156102 14.0297C0.0942898 13.9902 0.0470001 13.9316 0.021353 13.8629C-0.00429415 13.7941 -0.00691048 13.7189 0.013898 13.6485C0.0347065 13.5781 0.0778134 13.5164 0.136728 13.4727C2.55103 11.992 5.32472 11.2007 8.15687 11.1847C9.10644 11.1688 10.0558 11.2271 10.9963 11.3588C12.4219 11.5646 13.8235 11.9113 15.1805 12.394C16.155 12.7438 17.108 13.1508 18.0345 13.613C19.2177 14.2006 20.3631 14.8613 21.4641 15.5914C34.7859 24.342 39.3619 32.454 55.6731 29.0873C55.7532 29.0619 55.8398 29.0672 55.9162 29.1021C55.9926 29.1371 56.0533 29.1992 56.0865 29.2764C56.1197 29.3536 56.1229 29.4404 56.0957 29.5198C56.0685 29.5993 56.0127 29.6658 55.9391 29.7065Z" fill="#2B67F6"/>
</svg>
