<svg width="89" height="89" viewBox="0 0 89 89" fill="none" xmlns="http://www.w3.org/2000/svg">
<g id="Frame 1104218203">
<circle id="Ellipse 6" cx="45" cy="44.9999" r="42.5" transform="rotate(60 45 44.9999)" stroke="#E1E1E1" stroke-width="3"/>
<path id="Ellipse 7" d="M8.26094 67.3661C-3.88932 46.3212 2.93346 19.6351 23.5 7.76099C44.0666 -4.11314 70.5889 3.32123 82.7391 24.3661" stroke="#2B67F6" stroke-width="3" stroke-linecap="round"/>
<g id="Group 2192">
<path id="Vector" d="M65.557 40.9689V48.6098C65.5416 49.5142 65.2169 49.8658 64.557 50.5C63.8972 51.1342 62.9824 51.0001 62.057 51C61.1439 50.9823 60.2017 51.1323 59.557 50.5C58.9123 49.8677 58.5878 49.5024 58.5728 48.6098V42.7961C58.7193 40.7621 58.3603 38.7237 57.5263 36.8547C57.1607 36.2729 56.638 35.8009 56.0156 35.4907C55.3933 35.1805 54.6955 35.044 53.9989 35.0964C53.1774 35.0396 52.3557 35.2047 51.6237 35.5735C50.8917 35.9424 50.2775 36.5009 49.8484 37.188C48.9783 38.59 48.555 40.831 48.555 43.9223V51C46.306 49.9042 43.9936 46.8332 41.6296 46V42.8766C41.6296 37.6821 40.0893 35.0964 37.0322 35.0964C36.1913 35.034 35.3491 35.1994 34.5982 35.5745C33.8472 35.9496 33.2167 36.5198 32.7758 37.2224C32.557 38 32.6551 37.0311 32.057 39.5C32.057 39.5 26.8653 37.9723 24.557 38L24.557 32.5107C24.557 32.1566 24.6286 31.8059 24.7676 31.4789C24.9066 31.1519 25.1103 30.8549 25.367 30.6051C25.6237 30.3552 25.9284 30.1574 26.2636 30.0229C26.5988 29.8884 26.9578 29.82 27.3201 29.8215H28.6958C29.4266 29.8215 30.1276 30.1045 30.6455 30.6085C31.1633 31.1124 31.4558 31.7964 31.4589 32.5107C32.4408 31.4271 33.5868 30.4969 34.857 29.7526C36.0324 29.2142 37.3224 28.9581 38.6195 29.0056C40.2228 28.9791 41.8052 29.363 43.2098 30.1189C44.6145 30.8749 45.7924 31.9768 46.6267 33.3151C47.6153 31.9435 48.9356 30.8322 50.4702 30.0803C52.0047 29.3284 53.7057 28.9592 55.4216 29.0056C62.1786 29.0056 65.557 32.9933 65.557 40.9689Z" fill="#2B67F6"/>
<rect id="Rectangle 28" x="58.557" y="43" width="7" height="13" rx="3.5" fill="#2B67F6"/>
<path id="Vector_2" d="M69.9391 58.7065C65.3921 61.5798 51.5189 69.1791 40.3207 62.9149C29.7223 56.9892 26.7764 42.1147 14.3641 43.0822C14.2909 43.0877 14.2179 43.0693 14.1561 43.0297C14.0943 42.9902 14.047 42.9316 14.0214 42.8629C13.9957 42.7941 13.9931 42.7189 14.0139 42.6485C14.0347 42.5781 14.0778 42.5164 14.1367 42.4727C16.551 40.992 19.3247 40.2007 22.1569 40.1847C23.1064 40.1688 24.0558 40.2271 24.9963 40.3588C26.4219 40.5646 27.8235 40.9113 29.1805 41.394C30.155 41.7438 31.108 42.1508 32.0345 42.613C33.2177 43.2006 34.3631 43.8613 35.4641 44.5914C48.7859 53.342 53.3619 61.454 69.6731 58.0873C69.7532 58.0619 69.8398 58.0672 69.9162 58.1021C69.9926 58.1371 70.0533 58.1992 70.0865 58.2764C70.1197 58.3536 70.1229 58.4404 70.0957 58.5198C70.0685 58.5993 70.0127 58.6658 69.9391 58.7065Z" fill="#2B67F6"/>
</g>
</g>
</svg>
