<svg width="263" height="88" viewBox="0 0 263 88" fill="none" xmlns="http://www.w3.org/2000/svg">
<g clip-path="url(#clip0_497_11420)">
<path d="M51.5549 27.427V39.7524C51.5422 40.5138 51.2308 41.2396 50.6879 41.7735C50.1449 42.3074 49.4139 42.6065 48.6525 42.6064C47.9011 42.5915 47.1849 42.2857 46.6544 41.7534C46.1239 41.2211 45.8205 40.5038 45.8082 39.7524V28.9653C45.9287 27.253 45.6333 25.5369 44.9471 23.9635C44.6463 23.4737 44.2162 23.0764 43.7041 22.8152C43.192 22.5541 42.6179 22.4392 42.0447 22.4833C41.3688 22.4355 40.6927 22.5744 40.0904 22.885C39.488 23.1955 38.9827 23.6657 38.6296 24.2441C37.9137 25.4244 37.5654 27.3109 37.5654 29.9134V38.3786C35.7149 37.4561 33.8122 36.6421 31.8671 35.9406V29.033C31.8671 24.6601 30.5997 22.4833 28.0843 22.4833C27.3924 22.4308 26.6994 22.57 26.0816 22.8858C25.4637 23.2015 24.9449 23.6816 24.5821 24.2731C23.8468 25.4244 23.4986 27.3593 23.4986 29.9134V33.8703C21.6172 33.6086 19.7189 33.489 17.8196 33.5123V20.3065C17.8196 20.0084 17.8785 19.7132 17.9928 19.4379C18.1072 19.1626 18.2748 18.9126 18.4861 18.7023C18.6973 18.492 18.948 18.3254 19.2238 18.2122C19.4996 18.099 19.795 18.0414 20.0931 18.0427H21.225C21.8263 18.0427 22.4032 18.2809 22.8293 18.7051C23.2553 19.1294 23.496 19.7052 23.4986 20.3065C24.3065 19.3943 25.2494 18.6112 26.2945 17.9846C27.2617 17.5314 28.3231 17.3158 29.3904 17.3558C30.7096 17.3335 32.0116 17.6566 33.1674 18.293C34.3231 18.9295 35.2923 19.857 35.9788 20.9837C36.7922 19.829 37.8786 18.8935 39.1412 18.2605C40.4039 17.6275 41.8035 17.3167 43.2154 17.3558C48.775 17.3558 51.5549 20.7129 51.5549 27.427Z" fill="white"/>
<path d="M61.0482 18.0332C61.8009 18.0332 62.5229 18.3315 63.056 18.8629C63.5891 19.3942 63.8899 20.1152 63.8925 20.8679V32.1387C63.8925 36.2085 65.5049 38.2434 68.7298 38.2434C71.9547 38.2434 73.5671 36.2085 73.5671 32.1387V20.8679C73.5671 20.4956 73.6404 20.127 73.7829 19.7831C73.9253 19.4392 74.1341 19.1267 74.3973 18.8635C74.6606 18.6002 74.973 18.3914 75.317 18.249C75.6609 18.1065 76.0295 18.0332 76.4017 18.0332C77.1544 18.0332 77.8764 18.3315 78.4096 18.8629C78.9427 19.3942 79.2435 20.1152 79.2461 20.8679V32.2645C79.2783 33.9926 79.03 35.7145 78.5108 37.363C77.9961 38.7006 77.1546 39.888 76.0631 40.8168C74.0189 42.5269 71.4123 43.4164 68.7491 43.3129C66.0923 43.4134 63.4928 42.5239 61.4545 40.8168C60.3469 39.8923 59.4887 38.7048 58.9585 37.363C58.4106 35.7216 58.1712 33.993 58.2522 32.2645V20.8679C58.2522 20.1161 58.5509 19.3951 59.0825 18.8635C59.6141 18.3319 60.3351 18.0332 61.0869 18.0332H61.0482Z" fill="white"/>
<path d="M88.1758 18.0338H89.3368C89.9381 18.0364 90.5139 18.277 90.9381 18.7031C91.3624 19.1292 91.6006 19.7061 91.6006 20.3074C92.4609 19.3855 93.4998 18.6485 94.6541 18.1412C95.8084 17.6339 97.0539 17.3669 98.3148 17.3566C99.5589 17.288 100.803 17.4943 101.958 17.9608C103.114 18.4274 104.152 19.1426 105 20.0558C106.374 21.5844 107.07 24.0804 107.07 27.5439V39.7533C107.058 40.5063 106.753 41.225 106.221 41.7576C105.688 42.2901 104.969 42.5948 104.216 42.6073C103.455 42.6074 102.724 42.3082 102.181 41.7744C101.638 41.2405 101.327 40.5146 101.314 39.7533V28.879C101.314 26.4604 100.985 24.7867 100.346 23.8579C99.7079 22.9292 98.4986 22.4454 96.7668 22.4454C95.9923 22.3742 95.2128 22.5095 94.5075 22.8375C93.8023 23.1655 93.1965 23.6744 92.7519 24.3126C91.9779 25.5381 91.5909 27.6826 91.5909 30.7462V39.7533C91.5786 40.5047 91.2752 41.222 90.7447 41.7543C90.2142 42.2866 89.498 42.5923 88.7466 42.6073C87.9852 42.6074 87.2542 42.3082 86.7112 41.7744C86.1683 41.2405 85.8569 40.5146 85.8442 39.7533V20.3074C85.8441 20.0038 85.9048 19.7034 86.0227 19.4237C86.1405 19.144 86.3132 18.8907 86.5305 18.6789C86.7478 18.467 87.0054 18.3007 87.2879 18.1899C87.5705 18.0792 87.8724 18.0261 88.1758 18.0338Z" fill="white"/>
<path d="M135.21 0.000148097C135.584 -0.00112516 135.955 0.0715061 136.301 0.213877C136.647 0.356247 136.962 0.565557 137.227 0.829804C137.492 1.09405 137.703 1.40804 137.846 1.75376C137.99 2.09948 138.064 2.47014 138.064 2.84447V40.0336C138.064 40.7161 137.793 41.3706 137.31 41.8533C136.827 42.3359 136.173 42.607 135.49 42.607H134.929C134.247 42.607 133.592 42.3359 133.109 41.8533C132.627 41.3706 132.356 40.7161 132.356 40.0336C131.373 41.0595 130.194 41.8783 128.89 42.4415C127.586 43.0048 126.182 43.3012 124.761 43.3133C123.178 43.3515 121.606 43.0411 120.157 42.4041C118.707 41.7671 117.416 40.8191 116.373 39.6272C114.143 37.0275 112.969 33.6856 113.084 30.2622C112.966 26.888 114.143 23.5962 116.373 21.0617C117.36 19.9183 118.578 18.9979 119.947 18.3617C121.317 17.7254 122.806 17.3878 124.315 17.3713C125.825 17.3549 127.321 17.6599 128.704 18.2661C130.087 18.8724 131.325 19.766 132.336 20.8876V2.84447C132.336 2.4685 132.411 2.09625 132.556 1.74925C132.7 1.40226 132.912 1.0874 133.18 0.8229C133.447 0.558397 133.764 0.349494 134.112 0.208272C134.461 0.0670495 134.834 -0.0036884 135.21 0.000148097ZM118.889 30.2622C118.798 32.3693 119.486 34.436 120.824 36.067C121.418 36.7851 122.167 37.3598 123.015 37.7484C123.862 38.137 124.787 38.3294 125.719 38.3115C126.674 38.3293 127.621 38.1376 128.493 37.7498C129.366 37.362 130.143 36.7876 130.769 36.067C132.096 34.4684 132.786 32.4353 132.704 30.359C132.785 28.2857 132.096 26.2558 130.769 24.6607C130.136 23.9547 129.356 23.3971 128.483 23.0275C127.61 22.6579 126.666 22.4855 125.719 22.5226C124.799 22.5151 123.888 22.7106 123.052 23.0952C122.216 23.4798 121.475 24.044 120.882 24.7477C119.556 26.2748 118.845 28.2404 118.889 30.2622Z" fill="white"/>
<path d="M144.081 30.1458C144.053 28.4545 144.377 26.7758 145.034 25.2167C145.69 23.6576 146.664 22.2523 147.893 21.0904C150.396 18.6875 153.731 17.3457 157.2 17.3457C160.67 17.3457 164.005 18.6875 166.507 21.0904C167.739 22.2878 168.71 23.7263 169.361 25.3159C170.012 26.9056 170.328 28.6123 170.29 30.3296C170.329 32.0517 170.012 33.7633 169.358 35.3567C168.703 36.9502 167.726 38.3909 166.488 39.5882C165.244 40.8008 163.771 41.753 162.154 42.3893C160.538 43.0255 158.811 43.3329 157.074 43.2935C155.354 43.3361 153.643 43.022 152.049 42.371C150.456 41.72 149.014 40.7461 147.816 39.5108C146.589 38.2859 145.625 36.8236 144.983 35.2134C144.341 33.6031 144.034 31.8787 144.081 30.1458ZM149.886 30.2425C149.766 32.3535 150.459 34.4303 151.821 36.0473C153.248 37.4281 155.156 38.2 157.142 38.2C159.128 38.2 161.036 37.4281 162.463 36.0473C163.844 34.4684 164.559 32.4151 164.456 30.3199C164.559 28.2247 163.844 26.1715 162.463 24.5926C161.776 23.8949 160.95 23.35 160.038 22.9932C159.126 22.6365 158.149 22.476 157.171 22.5222C156.189 22.4862 155.21 22.6609 154.3 23.0347C153.391 23.4085 152.572 23.9727 151.898 24.6893C150.531 26.2162 149.81 28.2139 149.886 30.2619V30.2425Z" fill="white"/>
<path d="M178.583 18.0328H179.724C180.325 18.0353 180.901 18.276 181.326 18.7021C181.75 19.1282 181.988 19.705 181.988 20.3063C182.8 19.3939 183.746 18.6109 184.794 17.9844C185.765 17.5322 186.829 17.3166 187.899 17.3555C189.217 17.3321 190.518 17.6547 191.673 18.2913C192.827 18.928 193.794 19.8562 194.478 20.9835C195.29 19.8255 196.378 18.8877 197.643 18.2544C198.908 17.6211 200.31 17.3123 201.724 17.3555C207.258 17.3555 210.025 20.7094 210.025 27.4171V39.7716C210.022 40.5242 209.722 41.2452 209.188 41.7765C208.655 42.3079 207.933 42.6062 207.181 42.6062C206.808 42.6075 206.438 42.5351 206.093 42.3932C205.748 42.2513 205.434 42.0427 205.17 41.7794C204.906 41.516 204.696 41.2031 204.553 40.8586C204.41 40.514 204.336 40.1446 204.336 39.7716V28.9554C204.336 26.6044 204.056 24.9404 203.475 23.9633C203.171 23.472 202.735 23.0763 202.217 22.8213C201.698 22.5664 201.119 22.4626 200.544 22.5218C199.866 22.4742 199.187 22.6142 198.583 22.9265C197.979 23.2388 197.473 23.7113 197.119 24.2922C196.403 25.4628 196.045 27.3591 196.045 29.9615V39.7716C196.045 40.5234 195.747 41.2444 195.215 41.776C194.683 42.3076 193.962 42.6062 193.211 42.6062C192.459 42.6062 191.738 42.3076 191.206 41.776C190.675 41.2444 190.376 40.5234 190.376 39.7716V29.0328C190.376 24.6599 189.115 22.4734 186.593 22.4734C185.908 22.4303 185.224 22.574 184.614 22.8892C184.004 23.2044 183.491 23.6793 183.13 24.2632C182.394 25.4628 182.027 27.3397 182.027 29.9132V39.7716C182.027 40.5234 181.728 41.2444 181.196 41.776C180.665 42.3076 179.944 42.6062 179.192 42.6062C178.44 42.6062 177.719 42.3076 177.188 41.776C176.656 41.2444 176.357 40.5234 176.357 39.7716V20.3063C176.357 19.7116 176.59 19.1405 177.006 18.7155C177.422 18.2905 177.988 18.0454 178.583 18.0328Z" fill="white"/>
<path d="M238.167 18.0335C238.927 18.0487 239.65 18.3612 240.182 18.9038C240.714 19.4465 241.011 20.1761 241.011 20.9359V40.0335C241.011 40.716 240.74 41.3706 240.257 41.8532C239.775 42.3358 239.12 42.6069 238.438 42.6069H237.886C237.204 42.6069 236.549 42.3358 236.067 41.8532C235.584 41.3706 235.313 40.716 235.313 40.0335C234.265 41.1059 233.007 41.9506 231.617 42.5148C230.228 43.079 228.737 43.3505 227.238 43.3124C225.739 43.2742 224.264 42.9273 222.905 42.2932C221.546 41.6591 220.332 40.7515 219.34 39.6272C217.103 37.0298 215.919 33.6888 216.022 30.2622C215.913 26.8846 217.092 23.592 219.321 21.052C220.346 19.8675 221.619 18.9239 223.051 18.2884C224.482 17.6529 226.036 17.3412 227.602 17.3756C229.06 17.394 230.497 17.7178 231.822 18.326C233.147 18.9342 234.329 19.8134 235.293 20.9068C235.301 20.1471 235.606 19.4207 236.143 18.8834C236.681 18.3462 237.407 18.041 238.167 18.0335ZM221.826 30.2622C221.722 32.363 222.393 34.429 223.713 36.0669C224.313 36.7713 225.064 37.3324 225.909 37.7091C226.755 38.0858 227.674 38.2684 228.599 38.2437C229.561 38.2807 230.519 38.1048 231.406 37.7285C232.292 37.3522 233.085 36.7848 233.726 36.0669C235.054 34.4683 235.743 32.4352 235.661 30.3589C235.742 28.2856 235.053 26.2558 233.726 24.6606C233.094 23.9546 232.313 23.397 231.44 23.0274C230.567 22.6578 229.623 22.4854 228.676 22.5225C227.746 22.5091 226.825 22.7016 225.979 23.0864C225.133 23.4711 224.382 24.0384 223.781 24.7476C222.468 26.2799 221.772 28.2453 221.826 30.2622Z" fill="white"/>
<path d="M249.885 18.0336H251.171C251.752 18.0362 252.308 18.2687 252.718 18.6803C253.128 19.0918 253.358 19.649 253.358 20.2298C254.155 19.3354 255.093 18.5772 256.134 17.9853C257.038 17.5473 258.033 17.3317 259.037 17.3564C259.488 17.356 259.938 17.3981 260.382 17.4822C260.815 17.5509 261.226 17.7205 261.583 17.9772C261.939 18.2339 262.23 18.5705 262.432 18.9601C262.634 19.3497 262.742 19.7813 262.747 20.2202C262.753 20.6592 262.655 21.0932 262.462 21.4874C262.178 22.0773 261.7 22.5514 261.108 22.8298C260.516 23.1083 259.846 23.174 259.211 23.016C258.83 22.91 258.436 22.8547 258.04 22.8516C254.944 22.8516 253.396 25.1896 253.396 29.8656V39.7724C253.396 40.5242 253.098 41.2452 252.566 41.7768C252.035 42.3084 251.314 42.6071 250.562 42.6071C250.19 42.6071 249.821 42.5337 249.477 42.3913C249.133 42.2488 248.821 42.04 248.557 41.7768C248.294 41.5136 248.085 41.2011 247.943 40.8572C247.801 40.5133 247.727 40.1447 247.727 39.7724V20.2298C247.727 19.6539 247.953 19.1011 248.357 18.6904C248.76 18.2796 249.309 18.0438 249.885 18.0336Z" fill="white"/>
<path d="M95.0318 53.7043V54.101C95.0329 54.2837 94.9856 54.4634 94.8947 54.6219C94.8039 54.7804 94.6727 54.912 94.5145 55.0034C94.3563 55.0948 94.1767 55.1427 93.994 55.1422C93.8113 55.1417 93.632 55.0929 93.4742 55.0007C92.9863 54.7205 92.4307 54.5799 91.8682 54.5944C91.4244 54.5794 90.9824 54.6578 90.5708 54.8245C90.1591 54.9911 89.7871 55.2423 89.4786 55.5618C88.8333 56.2454 88.4854 57.1569 88.5112 58.0966C88.4907 59.0411 88.8375 59.9567 89.4786 60.6507C89.783 60.9729 90.1529 61.226 90.5635 61.3929C90.9741 61.5598 91.4157 61.6366 91.8586 61.6181C92.4224 61.6283 92.9792 61.4916 93.4742 61.2215C93.6317 61.1259 93.8117 61.0737 93.9959 61.0702C94.1801 61.0666 94.362 61.1118 94.523 61.2012C94.6841 61.2906 94.8187 61.421 94.9132 61.5791C95.0076 61.7373 95.0586 61.9176 95.0609 62.1018V62.4308C95.0577 62.6387 94.9937 62.8411 94.8768 63.013C94.7599 63.185 94.5952 63.3189 94.403 63.3982C93.6255 63.7277 92.7901 63.8988 91.9456 63.9013C91.1573 63.9228 90.3726 63.7877 89.6369 63.5037C88.9012 63.2197 88.2292 62.7926 87.6598 62.247C87.0985 61.7141 86.6552 61.0693 86.3586 60.3544C86.0619 59.6395 85.9186 58.8703 85.9377 58.0966C85.9225 57.3187 86.0695 56.5462 86.3693 55.8283C86.6692 55.1104 87.1152 54.4628 87.6792 53.9268C88.2435 53.3682 88.9149 52.9294 89.653 52.6368C90.3912 52.3442 91.1809 52.2038 91.9747 52.2241C92.8179 52.2189 93.6536 52.3834 94.432 52.7078C94.6211 52.7936 94.7798 52.9349 94.8869 53.1128C94.994 53.2907 95.0445 53.497 95.0318 53.7043Z" fill="white"/>
<path d="M110.803 52.5822H111.383C111.64 52.5822 111.886 52.6841 112.067 52.8655C112.249 53.047 112.351 53.293 112.351 53.5496C112.712 53.162 113.133 52.8353 113.599 52.5822C114.009 52.3869 114.46 52.2908 114.915 52.3016C115.293 52.3035 115.668 52.3656 116.027 52.4854C116.16 52.5306 116.282 52.6041 116.384 52.7011C116.485 52.798 116.565 52.916 116.616 53.0467C116.668 53.1775 116.691 53.3179 116.682 53.4582C116.674 53.5985 116.635 53.7354 116.569 53.8592L116.298 54.401C116.197 54.6124 116.023 54.7799 115.807 54.8724C115.592 54.965 115.35 54.9762 115.127 54.9041C114.906 54.8164 114.669 54.7704 114.431 54.7686C113.047 54.7686 112.351 55.8232 112.351 57.9322V62.6728C112.351 62.9293 112.249 63.1754 112.067 63.3569C111.886 63.5383 111.64 63.6402 111.383 63.6402H110.803C110.546 63.6402 110.3 63.5383 110.119 63.3569C109.937 63.1754 109.835 62.9293 109.835 62.6728V53.569C109.833 53.4403 109.856 53.3124 109.903 53.1928C109.951 53.0732 110.022 52.9642 110.112 52.8723C110.202 52.7804 110.309 52.7074 110.428 52.6576C110.547 52.6078 110.674 52.5821 110.803 52.5822Z" fill="white"/>
<path d="M131.044 52.5825C131.382 52.5851 131.705 52.7204 131.944 52.9594C132.183 53.1983 132.318 53.5217 132.321 53.8596V58.929C132.321 60.7575 133.046 61.6766 134.488 61.6766C135.929 61.6766 136.655 60.7092 136.655 58.929V53.8596C136.658 53.5217 136.793 53.1983 137.032 52.9594C137.271 52.7204 137.594 52.5851 137.932 52.5825C138.27 52.5851 138.593 52.7204 138.832 52.9594C139.071 53.1983 139.207 53.5217 139.209 53.8596V58.9871C139.227 59.7643 139.116 60.5392 138.88 61.28C138.647 61.8821 138.268 62.4172 137.777 62.8376C136.837 63.5648 135.682 63.9593 134.493 63.9593C133.304 63.9593 132.149 63.5648 131.208 62.8376C130.713 62.4178 130.327 61.883 130.086 61.28C129.838 60.5421 129.73 59.7646 129.767 58.9871V53.8596C129.769 53.5217 129.905 53.1983 130.144 52.9594C130.382 52.7204 130.706 52.5851 131.044 52.5825Z" fill="white"/>
<path d="M161.941 53.7034V54.1484C161.94 54.3294 161.89 54.5067 161.797 54.6621C161.704 54.8174 161.571 54.9451 161.412 55.0319C161.254 55.1187 161.074 55.1615 160.894 55.1558C160.713 55.1502 160.536 55.0963 160.383 54.9998C159.895 54.7196 159.34 54.579 158.777 54.5934C158.334 54.5785 157.892 54.6569 157.48 54.8236C157.068 54.9902 156.696 55.2414 156.388 55.5609C155.742 56.2444 155.395 57.156 155.42 58.0956C155.387 59.0335 155.716 59.9483 156.339 60.6497C156.645 60.9709 157.015 61.2234 157.425 61.3902C157.835 61.5571 158.277 61.6344 158.719 61.6172C159.283 61.6274 159.84 61.4907 160.335 61.2205H160.393C160.542 61.1078 160.72 61.0406 160.907 61.0271C161.093 61.0136 161.279 61.0543 161.443 61.1443C161.607 61.2343 161.741 61.3698 161.829 61.5344C161.918 61.699 161.956 61.8857 161.941 62.0719V62.4782C161.945 62.684 161.888 62.8863 161.776 63.0588C161.663 63.2313 161.502 63.3661 161.312 63.4457C160.525 63.7774 159.68 63.9516 158.826 63.9584C158.037 63.98 157.253 63.8448 156.517 63.5608C155.781 63.2769 155.109 62.8497 154.54 62.3041C153.979 61.7712 153.535 61.1265 153.239 60.4115C152.942 59.6966 152.799 58.9275 152.818 58.1537C152.803 57.3758 152.95 56.6033 153.249 55.8854C153.549 55.1675 153.995 54.5199 154.559 53.9839C155.124 53.4253 155.795 52.9865 156.533 52.6939C157.271 52.4013 158.061 52.2609 158.855 52.2812C159.698 52.2799 160.533 52.4443 161.312 52.7649C161.497 52.8426 161.656 52.9729 161.767 53.1398C161.879 53.3066 161.94 53.5026 161.941 53.7034Z" fill="white"/>
<path d="M202.023 52.5822H202.603C202.86 52.5822 203.106 52.6841 203.288 52.8655C203.469 53.047 203.571 53.293 203.571 53.5496C203.932 53.162 204.353 52.8353 204.819 52.5822C205.229 52.3869 205.68 52.2908 206.135 52.3016C206.412 52.2994 206.689 52.3353 206.957 52.408C207.124 52.4504 207.28 52.5298 207.412 52.6403C207.545 52.7509 207.65 52.8898 207.722 53.0467C207.793 53.2037 207.829 53.3747 207.825 53.5471C207.822 53.7196 207.78 53.8891 207.702 54.043L207.586 54.2655C207.463 54.51 207.258 54.7033 207.007 54.8112C206.755 54.9192 206.474 54.9349 206.212 54.8557C206.034 54.7992 205.848 54.7698 205.661 54.7686C204.267 54.7686 203.571 55.8232 203.571 57.9322V62.3825C203.571 62.7212 203.436 63.046 203.197 63.2855C202.957 63.525 202.633 63.6596 202.294 63.6596C201.955 63.6596 201.63 63.525 201.391 63.2855C201.151 63.046 201.017 62.7212 201.017 62.3825V53.569C201.014 53.437 201.038 53.3058 201.088 53.1836C201.138 53.0613 201.212 52.9506 201.307 52.8581C201.401 52.7657 201.513 52.6935 201.636 52.6461C201.759 52.5986 201.891 52.5769 202.023 52.5822Z" fill="white"/>
<path d="M220.563 58.0381C220.551 57.2762 220.697 56.5201 220.992 55.8174C221.287 55.1147 221.724 54.4807 222.276 53.9554C223.403 52.8757 224.904 52.2729 226.465 52.2729C228.026 52.2729 229.527 52.8757 230.654 53.9554C231.207 54.4933 231.644 55.1393 231.937 55.8534C232.23 56.5675 232.373 57.3342 232.357 58.1058C232.376 58.8811 232.233 59.6517 231.936 60.3682C231.64 61.0847 231.196 61.7312 230.635 62.2659C230.079 62.8151 229.418 63.2464 228.691 63.534C227.965 63.8216 227.188 63.9595 226.407 63.9396C225.632 63.9569 224.862 63.8146 224.145 63.5217C223.428 63.2288 222.778 62.7915 222.237 62.2369C221.689 61.6865 221.258 61.0306 220.97 60.309C220.682 59.5873 220.544 58.8148 220.563 58.0381ZM223.175 58.0381C223.122 58.9927 223.437 59.9314 224.056 60.6599C224.364 60.9826 224.737 61.2359 225.151 61.4027C225.565 61.5696 226.009 61.6462 226.455 61.6274C226.9 61.6473 227.343 61.5712 227.755 61.4042C228.168 61.2373 228.539 60.9834 228.845 60.6599C229.427 59.9286 229.744 59.0214 229.744 58.0865C229.744 57.1516 229.427 56.2444 228.845 55.513C228.209 54.8862 227.353 54.5347 226.46 54.5347C225.567 54.5347 224.711 54.8862 224.075 55.513C223.448 56.2151 223.125 57.1369 223.175 58.0768V58.0381Z" fill="white"/>
<path d="M251.753 55.0965C251.527 55.2166 251.269 55.2626 251.015 55.2278C250.762 55.1931 250.525 55.0795 250.34 54.9031C250.243 54.7995 250.127 54.7169 249.997 54.6603C249.867 54.6038 249.727 54.5744 249.585 54.5741C249.36 54.5696 249.141 54.6529 248.976 54.8063C248.896 54.8815 248.832 54.9731 248.79 55.0749C248.749 55.1768 248.73 55.2865 248.734 55.3965C248.734 55.8221 249.218 56.2478 250.205 56.6638C251.211 57.0437 252.138 57.6043 252.943 58.3182C253.417 58.8487 253.67 59.5414 253.649 60.2531C253.658 60.7587 253.558 61.2603 253.354 61.7231C253.15 62.1859 252.848 62.5987 252.468 62.933C251.708 63.6168 250.714 63.9837 249.692 63.9585C249.076 63.9863 248.462 63.8665 247.902 63.609C247.341 63.3515 246.85 62.9638 246.47 62.4783C246.362 62.3407 246.287 62.1803 246.251 62.0094C246.214 61.8385 246.217 61.6615 246.259 61.4918C246.301 61.3221 246.381 61.1641 246.493 61.03C246.605 60.8958 246.746 60.789 246.906 60.7175L247.012 60.6594C247.258 60.5495 247.534 60.527 247.794 60.5956C248.055 60.6643 248.284 60.8199 248.444 61.0367L248.628 61.2496C248.93 61.5297 249.328 61.6822 249.74 61.6753C250.601 61.6753 251.037 61.2786 251.037 60.495C251.037 60.0403 250.698 59.6146 250.069 59.2276L249.295 58.8503C249.034 58.7245 248.773 58.6084 248.512 58.473C247.907 58.2139 247.364 57.8317 246.915 57.3507C246.513 56.8435 246.306 56.208 246.335 55.5609C246.32 55.1186 246.399 54.678 246.565 54.268C246.732 53.8579 246.983 53.4876 247.302 53.181C247.961 52.5466 248.845 52.1988 249.76 52.2135C250.17 52.2025 250.579 52.2729 250.963 52.4207C251.347 52.5685 251.697 52.7907 251.994 53.0746C252.149 53.2048 252.268 53.3713 252.342 53.5592C252.416 53.747 252.442 53.9503 252.418 54.1507C252.394 54.3512 252.321 54.5425 252.205 54.7076C252.089 54.8727 251.933 55.0064 251.753 55.0965Z" fill="white"/>
<path d="M184.638 53.8387C184.146 53.3122 183.544 52.8999 182.876 52.6308C182.207 52.3617 181.488 52.2423 180.768 52.2811C180.046 52.2531 179.327 52.3812 178.659 52.6567C177.991 52.9322 177.391 53.3486 176.898 53.8774C175.896 55.0589 175.377 56.5763 175.447 58.1245C175.371 59.682 175.91 61.2071 176.947 62.3717C177.458 62.9012 178.077 63.3163 178.76 63.5898C179.444 63.8633 180.178 63.9889 180.913 63.9583C181.454 63.9644 181.994 63.9026 182.519 63.7745C183.004 63.655 183.467 63.4625 183.893 63.2037C184.33 62.9227 184.724 62.5806 185.064 62.1878L185.267 61.9653C185.459 61.7381 185.565 61.4504 185.567 61.1527C185.569 60.9335 185.512 60.7178 185.401 60.5286C185.29 60.3395 185.13 60.184 184.938 60.0788C184.678 59.9338 184.375 59.8873 184.083 59.9477C183.792 60.0081 183.532 60.1714 183.351 60.4077C183.125 60.7074 182.862 60.9772 182.568 61.2107C182.106 61.531 181.552 61.6907 180.991 61.6654C180.619 61.6797 180.248 61.6165 179.901 61.48C179.555 61.3434 179.241 61.1364 178.978 60.8721C178.433 60.2796 178.121 59.5099 178.098 58.705H185.489C185.632 58.705 185.768 58.6493 185.869 58.5497C185.971 58.4502 186.029 58.3149 186.031 58.1729C186.144 56.6024 185.645 55.0492 184.638 53.8387ZM183.129 56.6249H178.65C178.583 56.6249 178.519 56.5985 178.472 56.5513C178.425 56.5041 178.398 56.4401 178.398 56.3734V56.3154V56.2476C178.463 56.0821 178.544 55.9233 178.64 55.7736C178.945 55.2843 179.41 54.9152 179.956 54.7287C180.235 54.6306 180.53 54.5815 180.826 54.5836C181.378 54.5409 181.928 54.6912 182.382 55.0088C182.835 55.3264 183.164 55.7917 183.313 56.325C183.325 56.3568 183.329 56.3909 183.326 56.4247C183.323 56.4585 183.312 56.4911 183.294 56.52C183.277 56.549 183.252 56.5735 183.224 56.5917C183.195 56.6099 183.163 56.6212 183.129 56.6249Z" fill="white"/>
<path d="M111.888 74.7649C102.794 80.5116 75.0473 95.7103 52.6506 83.1818C31.4536 71.3304 25.5618 41.5811 0.736832 43.516C0.590479 43.527 0.4445 43.4902 0.320874 43.4111C0.197249 43.332 0.102668 43.2149 0.0513734 43.0773C7.85897e-05 42.9398 -0.00515412 42.7894 0.0364633 42.6486C0.0780807 42.5079 0.164295 42.3845 0.282127 42.297C5.11078 39.3355 10.6582 37.7529 16.3226 37.7209C18.2218 37.6893 20.1205 37.8057 22.0016 38.0692C24.8527 38.4807 27.6559 39.1743 30.3701 40.1395C32.3191 40.8391 34.2251 41.6532 36.0781 42.5775C38.4445 43.7528 40.7353 45.0743 42.9374 46.5344C69.5812 64.0358 78.7333 80.26 111.356 73.5265C111.516 73.4757 111.69 73.4863 111.842 73.5562C111.995 73.6261 112.117 73.7503 112.183 73.9047C112.249 74.0591 112.256 74.2327 112.201 74.3916C112.147 74.5506 112.035 74.6836 111.888 74.7649Z" fill="white"/>
</g>
<defs>
<clipPath id="clip0_497_11420">
<rect width="262.752" height="88" fill="white"/>
</clipPath>
</defs>
</svg>
