<svg width="192" height="64" viewBox="0 0 192 64" fill="none" xmlns="http://www.w3.org/2000/svg">
<g id="logo-mmc.svg" clip-path="url(#clip0_314_135)">
<path id="Vector" d="M37.4945 19.9476V28.9115C37.4852 29.4652 37.2588 29.9931 36.8639 30.3814C36.4691 30.7697 35.9374 30.9872 35.3836 30.9872C34.8372 30.9763 34.3163 30.7539 33.9305 30.3668C33.5447 29.9797 33.324 29.458 33.315 28.9115V21.0663C33.4027 19.821 33.1879 18.573 32.6888 17.4287C32.47 17.0725 32.1572 16.7835 31.7848 16.5936C31.4124 16.4036 30.9948 16.3201 30.578 16.3522C30.0864 16.3174 29.5947 16.4184 29.1566 16.6443C28.7186 16.8701 28.3511 17.2121 28.0943 17.6327C27.5736 18.4911 27.3203 19.8632 27.3203 21.7559V27.9124C25.9745 27.2415 24.5907 26.6495 23.1761 26.1393V21.1156C23.1761 17.9353 22.2544 16.3522 20.425 16.3522C19.9218 16.3139 19.4178 16.4152 18.9684 16.6449C18.5191 16.8745 18.1417 17.2236 17.8779 17.6538C17.3432 18.4911 17.0899 19.8983 17.0899 21.7559V24.6336C15.7216 24.4433 14.341 24.3563 12.9597 24.3733V14.769C12.9597 14.5522 13.0025 14.3376 13.0857 14.1374C13.1689 13.9371 13.2908 13.7553 13.4444 13.6023C13.5981 13.4494 13.7804 13.3282 13.981 13.2459C14.1815 13.1636 14.3964 13.1217 14.6132 13.1226H15.4364C15.8737 13.1226 16.2932 13.2958 16.6031 13.6044C16.913 13.913 17.088 14.3317 17.0899 14.769C17.6775 14.1056 18.3632 13.5361 19.1233 13.0804C19.8267 12.7508 20.5986 12.594 21.3748 12.623C22.3342 12.6069 23.2812 12.8418 24.1217 13.3047C24.9623 13.7675 25.6671 14.4421 26.1664 15.2616C26.758 14.4218 27.5481 13.7414 28.4664 13.281C29.3846 12.8207 30.4026 12.5946 31.4294 12.623C35.4728 12.623 37.4945 15.0646 37.4945 19.9476Z" fill="#2B67F6"/>
<path id="Vector_2" d="M44.3989 13.1155C44.9463 13.1155 45.4714 13.3325 45.8591 13.7189C46.2468 14.1053 46.4656 14.6296 46.4675 15.177V23.3741C46.4675 26.3339 47.6401 27.8138 49.9855 27.8138C52.3309 27.8138 53.5035 26.3339 53.5035 23.3741V15.177C53.5035 14.9063 53.5569 14.6382 53.6605 14.3881C53.7641 14.138 53.9159 13.9107 54.1074 13.7193C54.2988 13.5279 54.5261 13.376 54.7762 13.2724C55.0263 13.1688 55.2944 13.1155 55.5651 13.1155C56.1125 13.1155 56.6376 13.3325 57.0253 13.7189C57.4131 14.1053 57.6318 14.6296 57.6337 15.177V23.4655C57.6571 24.7223 57.4765 25.9746 57.099 27.1735C56.7247 28.1463 56.1127 29.0099 55.3188 29.6854C53.8321 30.929 51.9364 31.576 49.9996 31.5007C48.0673 31.5738 46.1768 30.9269 44.6944 29.6854C43.8888 29.013 43.2647 28.1494 42.8791 27.1735C42.4806 25.9798 42.3065 24.7226 42.3654 23.4655V15.177C42.3654 14.6303 42.5826 14.1059 42.9693 13.7193C43.3559 13.3327 43.8803 13.1155 44.427 13.1155H44.3989Z" fill="#2B67F6"/>
<path id="Vector_3" d="M64.1278 13.1154H64.9721C65.4095 13.1173 65.8282 13.2923 66.1368 13.6022C66.4453 13.9121 66.6186 14.3316 66.6186 14.7689C67.2442 14.0984 67.9998 13.5624 68.8393 13.1935C69.6788 12.8245 70.5846 12.6304 71.5016 12.6229C72.4064 12.573 73.3111 12.723 74.1514 13.0623C74.9917 13.4016 75.747 13.9218 76.3635 14.5859C77.3626 15.6976 77.8692 17.5129 77.8692 20.0318V28.9114C77.8602 29.459 77.6386 29.9817 77.2513 30.369C76.864 30.7563 76.3413 30.9779 75.7936 30.987C75.2398 30.9871 74.7082 30.7695 74.3133 30.3812C73.9185 29.993 73.692 29.4651 73.6828 28.9114V21.0028C73.6828 19.2438 73.4436 18.0266 72.9792 17.3511C72.5148 16.6756 71.6353 16.3238 70.3758 16.3238C69.8126 16.272 69.2456 16.3704 68.7327 16.609C68.2198 16.8475 67.7792 17.2177 67.4559 17.6818C66.893 18.573 66.6115 20.1327 66.6115 22.3608V28.9114C66.6025 29.4578 66.3819 29.9795 65.9961 30.3666C65.6103 30.7538 65.0894 30.9761 64.5429 30.987C63.9892 30.9871 63.4575 30.7695 63.0627 30.3812C62.6678 29.993 62.4414 29.4651 62.4321 28.9114V14.7689C62.4321 14.5481 62.4762 14.3296 62.5619 14.1262C62.6476 13.9228 62.7732 13.7386 62.9312 13.5845C63.0893 13.4304 63.2766 13.3095 63.4821 13.2289C63.6876 13.1484 63.9072 13.1098 64.1278 13.1154Z" fill="#2B67F6"/>
<path id="Vector_4" d="M98.3344 0.000107707C98.6067 -0.000818299 98.8764 0.0520044 99.1282 0.155547C99.38 0.259089 99.6089 0.411314 99.8017 0.603493C99.9945 0.795673 100.148 1.02403 100.252 1.27546C100.356 1.5269 100.41 1.79646 100.41 2.06871V29.1153C100.41 29.6117 100.213 30.0877 99.8619 30.4387C99.5109 30.7897 99.0349 30.9869 98.5385 30.9869H98.1304C97.634 30.9869 97.158 30.7897 96.807 30.4387C96.456 30.0877 96.2588 29.6117 96.2588 29.1153C95.544 29.8615 94.687 30.4569 93.7384 30.8666C92.7898 31.2762 91.7687 31.4918 90.7355 31.5005C89.5843 31.5283 88.4411 31.3026 87.3869 30.8393C86.3327 30.3761 85.3933 29.6866 84.6352 28.8198C83.0132 26.9291 82.1596 24.4986 82.243 22.0089C82.157 19.5549 83.0129 17.1609 84.6352 15.3176C85.3525 14.4861 86.2385 13.8167 87.2344 13.3539C88.2303 12.8912 89.3133 12.6457 90.4114 12.6337C91.5095 12.6217 92.5975 12.8435 93.6033 13.2845C94.6091 13.7254 95.5095 14.3753 96.2447 15.191V2.06871C96.2447 1.79527 96.2989 1.52454 96.4042 1.27218C96.5094 1.01982 96.6637 0.790839 96.858 0.598473C97.0524 0.406107 97.2829 0.254177 97.5363 0.15147C97.7897 0.0487633 98.061 -0.00268248 98.3344 0.000107707ZM86.4646 22.0089C86.3983 23.5413 86.8994 25.0444 87.8718 26.2305C88.3044 26.7528 88.8491 27.1707 89.4655 27.4534C90.0819 27.736 90.7541 27.876 91.4321 27.8629C92.1264 27.8759 92.8151 27.7364 93.4497 27.4544C94.0842 27.1724 94.6493 26.7546 95.1049 26.2305C96.0703 25.0679 96.5715 23.5893 96.5121 22.0793C96.5711 20.5714 96.0698 19.0952 95.1049 17.935C94.6448 17.4216 94.077 17.0161 93.4422 16.7473C92.8073 16.4785 92.1209 16.3531 91.4321 16.3801C90.7628 16.3746 90.1005 16.5168 89.4924 16.7965C88.8843 17.0762 88.3454 17.4866 87.914 17.9983C86.9498 19.1089 86.4332 20.5385 86.4646 22.0089Z" fill="#2B67F6"/>
<path id="Vector_5" d="M104.787 21.9244C104.766 20.6943 105.002 19.4735 105.479 18.3396C105.957 17.2057 106.665 16.1837 107.559 15.3386C109.379 13.5911 111.804 12.6152 114.328 12.6152C116.851 12.6152 119.276 13.5911 121.096 15.3386C121.992 16.2095 122.698 17.2557 123.172 18.4118C123.645 19.5679 123.875 20.8091 123.847 22.0581C123.876 23.3105 123.645 24.5553 123.169 25.7142C122.693 26.873 121.983 27.9208 121.082 28.7916C120.178 29.6735 119.106 30.366 117.931 30.8287C116.755 31.2915 115.499 31.515 114.236 31.4864C112.985 31.5174 111.74 31.2889 110.581 30.8155C109.423 30.342 108.374 29.6337 107.503 28.7353C106.61 27.8445 105.909 26.781 105.442 25.6099C104.975 24.4388 104.752 23.1847 104.787 21.9244ZM109.008 21.9947C108.921 23.53 109.425 25.0404 110.416 26.2164C111.453 27.2206 112.841 27.782 114.285 27.782C115.73 27.782 117.117 27.2206 118.155 26.2164C119.16 25.0681 119.679 23.5748 119.605 22.051C119.679 20.5273 119.16 19.034 118.155 17.8857C117.656 17.3783 117.055 16.982 116.391 16.7225C115.728 16.4631 115.018 16.3464 114.306 16.38C113.592 16.3538 112.88 16.4809 112.218 16.7527C111.557 17.0246 110.961 17.4349 110.472 17.9561C109.478 19.0665 108.953 20.5194 109.008 22.0088V21.9947Z" fill="#2B67F6"/>
<path id="Vector_6" d="M129.878 13.1154H130.709C131.146 13.1173 131.565 13.2923 131.873 13.6022C132.182 13.9121 132.355 14.3316 132.355 14.7689C132.945 14.1054 133.633 13.5359 134.395 13.0802C135.102 12.7513 135.876 12.5946 136.654 12.6229C137.613 12.6058 138.559 12.8405 139.399 13.3035C140.238 13.7665 140.941 14.4416 141.439 15.2614C142.029 14.4192 142.82 13.7372 143.74 13.2766C144.66 12.816 145.68 12.5914 146.709 12.6229C150.733 12.6229 152.746 15.062 152.746 19.9404V28.9254C152.744 29.4728 152.525 29.9972 152.137 30.3836C151.749 30.77 151.224 30.987 150.677 30.987C150.406 30.9879 150.137 30.9353 149.886 30.8321C149.635 30.7289 149.407 30.5772 149.215 30.3857C149.022 30.1941 148.87 29.9666 148.766 29.716C148.662 29.4654 148.608 29.1968 148.608 28.9254V21.0591C148.608 19.3494 148.404 18.1392 147.982 17.4285C147.761 17.0712 147.444 16.7834 147.067 16.598C146.69 16.4126 146.268 16.3371 145.85 16.3801C145.357 16.3455 144.863 16.4474 144.424 16.6745C143.985 16.9016 143.616 17.2452 143.359 17.6677C142.839 18.5191 142.578 19.8982 142.578 21.7909V28.9254C142.578 29.4722 142.361 29.9966 141.975 30.3832C141.588 30.7698 141.064 30.987 140.517 30.987C139.97 30.987 139.446 30.7698 139.059 30.3832C138.672 29.9966 138.455 29.4722 138.455 28.9254V21.1154C138.455 17.9351 137.538 16.345 135.704 16.345C135.206 16.3136 134.708 16.4181 134.265 16.6473C133.821 16.8766 133.448 17.222 133.185 17.6466C132.651 18.5191 132.383 19.8841 132.383 21.7557V28.9254C132.383 29.4722 132.166 29.9966 131.779 30.3832C131.393 30.7698 130.868 30.987 130.322 30.987C129.775 30.987 129.25 30.7698 128.864 30.3832C128.477 29.9966 128.26 29.4722 128.26 28.9254V14.7689C128.26 14.3364 128.429 13.9211 128.732 13.612C129.034 13.3029 129.446 13.1246 129.878 13.1154Z" fill="#2B67F6"/>
<path id="Vector_7" d="M173.212 13.1153C173.765 13.1264 174.291 13.3536 174.678 13.7483C175.064 14.143 175.281 14.6736 175.281 15.2261V29.1153C175.281 29.6117 175.084 30.0878 174.733 30.4387C174.382 30.7897 173.906 30.9869 173.409 30.9869H173.008C172.512 30.9869 172.036 30.7897 171.685 30.4387C171.334 30.0878 171.137 29.6117 171.137 29.1153C170.374 29.8953 169.459 30.5096 168.449 30.9199C167.438 31.3302 166.354 31.5277 165.264 31.5C164.174 31.4722 163.101 31.2199 162.112 30.7587C161.124 30.2976 160.242 29.6375 159.52 28.8198C157.893 26.9308 157.032 24.501 157.107 22.0089C157.027 19.5525 157.885 17.1579 159.506 15.3106C160.251 14.4492 161.177 13.7629 162.219 13.3007C163.26 12.8385 164.39 12.6119 165.529 12.6369C166.589 12.6503 167.634 12.8857 168.598 13.3281C169.561 13.7704 170.421 14.4098 171.122 15.205C171.128 14.6525 171.35 14.1242 171.741 13.7335C172.131 13.3428 172.66 13.1208 173.212 13.1153ZM161.328 22.0089C161.252 23.5368 161.74 25.0393 162.7 26.2305C163.137 26.7428 163.683 27.1509 164.297 27.4249C164.912 27.6988 165.581 27.8316 166.253 27.8137C166.953 27.8406 167.65 27.7126 168.295 27.439C168.94 27.1653 169.516 26.7527 169.983 26.2305C170.948 25.0679 171.449 23.5893 171.39 22.0793C171.449 20.5714 170.948 19.0952 169.983 17.935C169.522 17.4216 168.955 17.0161 168.32 16.7473C167.685 16.4785 166.999 16.3531 166.31 16.3801C165.634 16.3703 164.964 16.5103 164.348 16.7901C163.733 17.0699 163.187 17.4826 162.75 17.9984C161.795 19.1127 161.288 20.5421 161.328 22.0089Z" fill="#2B67F6"/>
<path id="Vector_8" d="M181.734 13.1153H182.67C183.092 13.1171 183.497 13.2862 183.795 13.5855C184.093 13.8849 184.26 14.2901 184.26 14.7124C184.84 14.062 185.522 13.5106 186.28 13.0801C186.937 12.7615 187.66 12.6047 188.39 12.6227C188.719 12.6224 189.046 12.653 189.368 12.7142C189.684 12.7642 189.983 12.8875 190.242 13.0742C190.501 13.2609 190.713 13.5057 190.86 13.7891C191.007 14.0724 191.085 14.3863 191.089 14.7055C191.093 15.0248 191.022 15.3404 190.881 15.6271C190.675 16.0561 190.328 16.4009 189.897 16.6034C189.466 16.8059 188.979 16.8537 188.517 16.7388C188.24 16.6617 187.954 16.6215 187.666 16.6192C185.414 16.6192 184.288 18.3196 184.288 21.7204V28.9253C184.288 29.472 184.071 29.9964 183.685 30.383C183.298 30.7696 182.774 30.9868 182.227 30.9868C181.956 30.9868 181.688 30.9335 181.438 30.8299C181.188 30.7263 180.961 30.5745 180.769 30.383C180.578 30.1916 180.426 29.9643 180.322 29.7142C180.219 29.4641 180.165 29.196 180.165 28.9253V14.7124C180.165 14.2937 180.33 13.8916 180.623 13.5929C180.917 13.2942 181.316 13.1226 181.734 13.1153Z" fill="#2B67F6"/>
<path id="Vector_9" d="M69.1139 39.0574V39.3459C69.1147 39.4788 69.0803 39.6095 69.0142 39.7247C68.9481 39.84 68.8527 39.9357 68.7376 40.0022C68.6226 40.0687 68.492 40.1035 68.3591 40.1032C68.2262 40.1028 68.0958 40.0673 67.9811 40.0002C67.6263 39.7965 67.2222 39.6942 66.8131 39.7047C66.4903 39.6939 66.1689 39.7509 65.8695 39.8721C65.5701 39.9933 65.2995 40.176 65.0752 40.4083C64.6059 40.9054 64.3529 41.5684 64.3716 42.2518C64.3567 42.9387 64.609 43.6046 65.0752 44.1093C65.2965 44.3436 65.5656 44.5277 65.8642 44.6491C66.1628 44.7705 66.484 44.8264 66.8061 44.8129C67.2162 44.8203 67.6211 44.7209 67.9811 44.5244C68.0957 44.4549 68.2265 44.417 68.3605 44.4144C68.4945 44.4118 68.6267 44.4447 68.7439 44.5097C68.861 44.5747 68.9589 44.6695 69.0276 44.7846C69.0963 44.8996 69.1334 45.0307 69.135 45.1647V45.4039C69.1327 45.5551 69.0862 45.7023 69.0012 45.8274C68.9161 45.9524 68.7963 46.0498 68.6566 46.1075C68.0911 46.3472 67.4835 46.4716 66.8694 46.4734C66.2961 46.4891 65.7254 46.3908 65.1903 46.1843C64.6553 45.9777 64.1665 45.6671 63.7524 45.2702C63.3442 44.8827 63.0218 44.4138 62.8061 43.8939C62.5903 43.3739 62.4861 42.8145 62.5 42.2518C62.4889 41.6861 62.5958 41.1243 62.8139 40.6021C63.032 40.08 63.3564 39.609 63.7665 39.2192C64.1769 38.813 64.6652 38.4938 65.202 38.281C65.7389 38.0682 66.3132 37.9661 66.8905 37.9809C67.5038 37.9771 68.1116 38.0968 68.6777 38.3327C68.8152 38.3951 68.9306 38.4978 69.0085 38.6272C69.0864 38.7566 69.1231 38.9066 69.1139 39.0574Z" fill="#2B67F6"/>
<path id="Vector_10" d="M80.5841 38.2413H81.0063C81.1929 38.2413 81.3719 38.3154 81.5038 38.4473C81.6358 38.5793 81.7099 38.7583 81.7099 38.9449C81.9725 38.6629 82.279 38.4253 82.6175 38.2413C82.9161 38.0992 83.2439 38.0294 83.5744 38.0372C83.8495 38.0386 84.1227 38.0838 84.3836 38.1709C84.4804 38.2037 84.5689 38.2573 84.6429 38.3278C84.7169 38.3982 84.7747 38.484 84.8122 38.5791C84.8497 38.6742 84.866 38.7763 84.8601 38.8784C84.8541 38.9804 84.826 39.08 84.7776 39.17L84.5806 39.564C84.5071 39.7178 84.3802 39.8396 84.2237 39.9069C84.0671 39.9742 83.8914 39.9824 83.7292 39.9299C83.5679 39.8661 83.3961 39.8327 83.2226 39.8314C82.2165 39.8314 81.7099 40.5983 81.7099 42.1322V45.5799C81.7099 45.7665 81.6358 45.9454 81.5038 46.0774C81.3719 46.2094 81.1929 46.2835 81.0063 46.2835H80.5841C80.3975 46.2835 80.2185 46.2094 80.0866 46.0774C79.9546 45.9454 79.8805 45.7665 79.8805 45.5799V38.9589C79.8786 38.8654 79.8955 38.7724 79.93 38.6854C79.9645 38.5984 80.016 38.5191 80.0816 38.4523C80.1471 38.3855 80.2253 38.3324 80.3116 38.2961C80.3979 38.2599 80.4905 38.2412 80.5841 38.2413Z" fill="#2B67F6"/>
<path id="Vector_11" d="M95.3047 38.2412C95.5504 38.2431 95.7856 38.3415 95.9594 38.5153C96.1331 38.6891 96.2316 38.9242 96.2334 39.17V42.8569C96.2334 44.1867 96.7611 44.8551 97.8095 44.8551C98.8579 44.8551 99.3856 44.1515 99.3856 42.8569V39.17C99.3874 38.9242 99.4859 38.6891 99.6596 38.5153C99.8334 38.3415 100.069 38.2431 100.314 38.2412C100.56 38.2431 100.795 38.3415 100.969 38.5153C101.143 38.6891 101.241 38.9242 101.243 39.17V42.8991C101.256 43.4644 101.176 44.0279 101.004 44.5666C100.834 45.0046 100.558 45.3937 100.202 45.6994C99.5178 46.2283 98.6776 46.5153 97.813 46.5153C96.9484 46.5153 96.1083 46.2283 95.4243 45.6994C95.0638 45.3942 94.7835 45.0052 94.6081 44.5666C94.428 44.03 94.3493 43.4645 94.3759 42.8991V39.17C94.3777 38.9242 94.4762 38.6891 94.65 38.5153C94.8237 38.3415 95.0589 38.2431 95.3047 38.2412Z" fill="#2B67F6"/>
<path id="Vector_12" d="M117.775 39.0574V39.3811C117.774 39.5127 117.738 39.6417 117.671 39.7547C117.603 39.8676 117.506 39.9605 117.391 40.0236C117.275 40.0867 117.145 40.1179 117.014 40.1138C116.882 40.1097 116.754 40.0705 116.643 40.0003C116.288 39.7965 115.884 39.6942 115.475 39.7047C115.152 39.6939 114.83 39.7509 114.531 39.8721C114.232 39.9933 113.961 40.176 113.737 40.4084C113.267 40.9055 113.014 41.5684 113.033 42.2518C113.009 42.9339 113.248 43.5992 113.702 44.1093C113.923 44.3429 114.193 44.5265 114.491 44.6479C114.79 44.7692 115.11 44.8255 115.432 44.8129C115.842 44.8203 116.247 44.7209 116.607 44.5244H116.65C116.758 44.4425 116.888 44.3936 117.023 44.3838C117.159 44.3739 117.294 44.4035 117.413 44.469C117.532 44.5345 117.63 44.633 117.694 44.7527C117.758 44.8725 117.787 45.0082 117.775 45.1436V45.4391C117.779 45.5888 117.737 45.7359 117.655 45.8614C117.574 45.9868 117.456 46.0849 117.318 46.1427C116.745 46.384 116.131 46.5107 115.51 46.5157C114.936 46.5313 114.366 46.433 113.831 46.2265C113.296 46.02 112.807 45.7093 112.393 45.3125C111.985 44.9249 111.662 44.456 111.446 43.9361C111.231 43.4162 111.126 42.8568 111.14 42.294C111.129 41.7283 111.236 41.1665 111.454 40.6444C111.672 40.1223 111.997 39.6513 112.407 39.2615C112.817 38.8552 113.306 38.5361 113.842 38.3233C114.379 38.1105 114.954 38.0084 115.531 38.0231C116.144 38.0222 116.751 38.1417 117.318 38.3749C117.453 38.4314 117.568 38.5262 117.649 38.6475C117.73 38.7689 117.774 38.9114 117.775 39.0574Z" fill="#2B67F6"/>
<path id="Vector_13" d="M146.926 38.241H147.348C147.535 38.241 147.713 38.3152 147.845 38.4471C147.977 38.5791 148.052 38.758 148.052 38.9446C148.314 38.6627 148.621 38.4251 148.959 38.241C149.258 38.099 149.586 38.0291 149.916 38.037C150.118 38.0354 150.319 38.0614 150.514 38.1144C150.636 38.1452 150.749 38.2029 150.845 38.2833C150.941 38.3637 151.018 38.4647 151.07 38.5789C151.122 38.693 151.148 38.8174 151.146 38.9428C151.143 39.0682 151.112 39.1915 151.056 39.3035L150.971 39.4653C150.882 39.6431 150.733 39.7836 150.55 39.8622C150.367 39.9407 150.163 39.9521 149.972 39.8945C149.843 39.8534 149.707 39.8321 149.571 39.8312C148.558 39.8312 148.052 40.5981 148.052 42.132V45.3685C148.052 45.6149 147.954 45.8511 147.779 46.0253C147.605 46.1995 147.369 46.2973 147.123 46.2973C146.876 46.2973 146.64 46.1995 146.466 46.0253C146.292 45.8511 146.194 45.6149 146.194 45.3685V38.9587C146.192 38.8627 146.21 38.7673 146.246 38.6784C146.282 38.5895 146.336 38.509 146.405 38.4417C146.473 38.3745 146.555 38.322 146.645 38.2875C146.734 38.253 146.83 38.2372 146.926 38.241Z" fill="#2B67F6"/>
<path id="Vector_14" d="M160.409 42.2092C160.401 41.6551 160.507 41.1052 160.721 40.5941C160.935 40.0831 161.253 39.622 161.655 39.24C162.475 38.4547 163.566 38.0164 164.701 38.0164C165.837 38.0164 166.928 38.4547 167.748 39.24C168.151 39.6311 168.468 40.101 168.681 40.6203C168.895 41.1396 168.998 41.6973 168.986 42.2585C169.001 42.8223 168.896 43.3827 168.681 43.9038C168.465 44.4249 168.142 44.8951 167.734 45.284C167.33 45.6833 166.849 45.997 166.321 46.2062C165.792 46.4153 165.227 46.5157 164.659 46.5012C164.096 46.5138 163.536 46.4103 163.014 46.1973C162.493 45.9842 162.02 45.6662 161.627 45.2629C161.228 44.8626 160.914 44.3856 160.705 43.8607C160.496 43.3359 160.395 42.774 160.409 42.2092ZM162.309 42.2092C162.27 42.9034 162.499 43.5861 162.95 44.116C163.174 44.3507 163.445 44.5349 163.746 44.6562C164.047 44.7775 164.37 44.8332 164.694 44.8196C165.018 44.8341 165.34 44.7787 165.64 44.6573C165.94 44.5359 166.21 44.3512 166.432 44.116C166.856 43.5841 167.087 42.9243 167.087 42.2444C167.087 41.5645 166.856 40.9047 166.432 40.3728C165.97 39.9169 165.347 39.6613 164.698 39.6613C164.049 39.6613 163.426 39.9169 162.964 40.3728C162.508 40.8834 162.272 41.5538 162.309 42.2373V42.2092Z" fill="#2B67F6"/>
<path id="Vector_15" d="M183.093 40.0705C182.928 40.1578 182.741 40.1912 182.556 40.1659C182.372 40.1407 182.2 40.058 182.065 39.9297C181.995 39.8544 181.91 39.7944 181.816 39.7532C181.721 39.7121 181.62 39.6907 181.517 39.6905C181.353 39.6872 181.194 39.7478 181.073 39.8594C181.015 39.914 180.969 39.9807 180.938 40.0548C180.908 40.1288 180.894 40.2086 180.897 40.2886C180.897 40.5982 181.249 40.9078 181.967 41.2103C182.699 41.4865 183.373 41.8943 183.958 42.4135C184.303 42.7993 184.487 43.3031 184.472 43.8207C184.479 44.1884 184.406 44.5532 184.257 44.8898C184.109 45.2263 183.889 45.5266 183.613 45.7697C183.06 46.267 182.338 46.5338 181.594 46.5155C181.146 46.5357 180.7 46.4486 180.292 46.2613C179.884 46.0741 179.528 45.7921 179.251 45.439C179.173 45.3389 179.118 45.2223 179.091 45.098C179.065 44.9737 179.067 44.8449 179.097 44.7215C179.128 44.5981 179.186 44.4833 179.267 44.3857C179.349 44.2881 179.452 44.2104 179.568 44.1584L179.645 44.1162C179.824 44.0362 180.025 44.0199 180.214 44.0698C180.404 44.1197 180.57 44.2329 180.686 44.3906L180.82 44.5454C181.04 44.7491 181.33 44.8601 181.629 44.855C182.255 44.855 182.572 44.5665 182.572 43.9966C182.572 43.6659 182.326 43.3563 181.868 43.0749L181.306 42.8005C181.116 42.709 180.926 42.6246 180.736 42.526C180.296 42.3376 179.901 42.0596 179.575 41.7099C179.282 41.341 179.132 40.8788 179.153 40.4082C179.142 40.0865 179.199 39.7661 179.32 39.4679C179.441 39.1697 179.624 38.9003 179.856 38.6773C180.336 38.216 180.978 37.963 181.643 37.9737C181.942 37.9657 182.24 38.0169 182.519 38.1244C182.797 38.2319 183.052 38.3935 183.269 38.5999C183.381 38.6946 183.468 38.8158 183.522 38.9524C183.575 39.089 183.594 39.2368 183.577 39.3826C183.559 39.5284 183.506 39.6676 183.422 39.7876C183.337 39.9077 183.224 40.0049 183.093 40.0705Z" fill="#2B67F6"/>
<path id="Vector_16" d="M134.282 39.1556C133.924 38.7727 133.487 38.4728 133.001 38.2771C132.514 38.0814 131.991 37.9946 131.468 38.0228C130.943 38.0024 130.42 38.0956 129.934 38.296C129.448 38.4963 129.011 38.7991 128.653 39.1837C127.924 40.043 127.547 41.1466 127.598 42.2726C127.543 43.4053 127.934 44.5145 128.689 45.3614C129.061 45.7465 129.51 46.0484 130.007 46.2473C130.505 46.4462 131.038 46.5375 131.573 46.5153C131.967 46.5197 132.359 46.4748 132.741 46.3816C133.093 46.2947 133.43 46.1548 133.74 45.9665C134.058 45.7621 134.345 45.5133 134.592 45.2277L134.74 45.0659C134.879 44.9006 134.957 44.6913 134.958 44.4748C134.959 44.3154 134.918 44.1586 134.837 44.021C134.757 43.8834 134.64 43.7703 134.5 43.6938C134.311 43.5884 134.091 43.5546 133.879 43.5985C133.667 43.6424 133.478 43.7612 133.346 43.9331C133.182 44.151 132.99 44.3473 132.776 44.517C132.441 44.75 132.038 44.8662 131.63 44.8477C131.359 44.8581 131.089 44.8122 130.837 44.7129C130.585 44.6136 130.357 44.463 130.166 44.2708C129.77 43.8399 129.542 43.2801 129.526 42.6947H134.901C135.005 42.6947 135.104 42.6542 135.178 42.5818C135.251 42.5094 135.294 42.411 135.295 42.3077C135.377 41.1656 135.014 40.036 134.282 39.1556ZM133.185 41.182H129.927C129.878 41.182 129.832 41.1627 129.798 41.1284C129.763 41.0941 129.744 41.0475 129.744 40.999V40.9568V40.9076C129.791 40.7872 129.85 40.6717 129.92 40.5628C130.142 40.2069 130.48 39.9385 130.877 39.8029C131.08 39.7315 131.294 39.6958 131.51 39.6973C131.911 39.6663 132.311 39.7756 132.641 40.0066C132.971 40.2376 133.21 40.5759 133.318 40.9638C133.327 40.9869 133.33 41.0117 133.328 41.0363C133.326 41.0609 133.318 41.0846 133.305 41.1057C133.292 41.1267 133.274 41.1445 133.254 41.1578C133.233 41.171 133.209 41.1793 133.185 41.182Z" fill="#2B67F6"/>
<path id="Vector_17" d="M81.3732 54.3747C74.7593 58.5541 54.5799 69.6078 38.2914 60.4961C22.8754 51.8769 18.5905 30.241 0.535922 31.6482C0.429483 31.6563 0.323317 31.6295 0.233407 31.572C0.143498 31.5144 0.0747121 31.4292 0.0374068 31.3292C0.000101545 31.2292 -0.00370406 31.1198 0.0265631 31.0174C0.0568303 30.9151 0.119532 30.8253 0.205227 30.7617C3.71698 28.6079 7.75148 27.4569 11.871 27.4336C13.2522 27.4106 14.6331 27.4953 16.0012 27.6869C18.0747 27.9862 20.1135 28.4906 22.0874 29.1926C23.5048 29.7014 24.891 30.2935 26.2386 30.9657C27.9596 31.8205 29.6257 32.7816 31.2272 33.8435C50.6045 46.5717 57.2606 58.3712 80.9862 53.4741C81.1027 53.4372 81.2288 53.4449 81.3399 53.4957C81.4511 53.5465 81.5393 53.6369 81.5876 53.7491C81.6358 53.8614 81.6406 53.9876 81.601 54.1032C81.5614 54.2188 81.4802 54.3156 81.3732 54.3747Z" fill="#2B67F6"/>
</g>
<defs>
<clipPath id="clip0_314_135">
<rect width="191.092" height="64" fill="white"/>
</clipPath>
</defs>
</svg>
