<svg width="51" height="32" viewBox="0 0 51 32" fill="none" xmlns="http://www.w3.org/2000/svg">
<g id="Group 2192">
<path id="Vector" d="M46.2022 10.544V17.2753C46.1886 18.072 45.9025 18.3817 45.3212 18.9404C44.7399 19.4991 43.9341 19.381 43.1189 19.3809C42.3144 19.3653 41.4845 19.4974 40.9165 18.9404C40.3485 18.3834 40.0627 18.0616 40.0494 17.2753V12.1537C40.1785 10.3619 39.8622 8.56609 39.1275 6.91959C38.8055 6.40704 38.3449 5.99125 37.7967 5.71796C37.2485 5.44468 36.6337 5.32449 36.0201 5.37062C35.2964 5.32058 34.5725 5.46599 33.9276 5.79096C33.2828 6.11592 32.7417 6.60793 32.3637 7.21318C31.5972 8.44831 31.2243 10.4225 31.2243 13.1458V19.3809C29.243 18.4155 27.2059 15.7102 25.1233 14.9761V12.2246C25.1233 7.64851 23.7664 5.37062 21.0733 5.37062C20.3325 5.31563 19.5905 5.46137 18.929 5.7918C18.2675 6.12223 17.712 6.62456 17.3236 7.24356C17.1308 7.92854 17.2172 7.07502 16.6904 9.24997C16.6904 9.24997 12.1167 7.9041 10.0833 7.92854L10.0833 3.09273C10.0832 2.78077 10.1463 2.47189 10.2687 2.1838C10.3912 1.89572 10.5707 1.63411 10.7968 1.41399C11.023 1.19388 11.2914 1.01959 11.5867 0.901132C11.882 0.782676 12.1983 0.722383 12.5174 0.723716H13.7293C14.3731 0.723711 14.9907 0.97298 15.4469 1.41697C15.9031 1.86095 16.1608 2.4635 16.1635 3.09273C17.0285 2.13812 18.0381 1.3187 19.157 0.662975C20.1925 0.188705 21.3289 -0.0369121 22.4716 0.00491526C23.884 -0.0183783 25.2781 0.319742 26.5155 0.985718C27.7528 1.65169 28.7905 2.62237 29.5255 3.8014C30.3964 2.59307 31.5596 1.61408 32.9114 0.951674C34.2633 0.289266 35.7618 -0.0359809 37.2734 0.00491526C43.2259 0.00491526 46.2022 3.51793 46.2022 10.544Z" fill="#2B67F6"/>
<rect id="Rectangle 28" x="40.0355" y="12.3333" width="6.16665" height="11.4523" rx="3.08332" fill="#2B67F6"/>
<path id="Vector_2" d="M50.0627 26.1699C46.0571 28.7012 33.8355 35.3958 23.9704 29.8773C14.6338 24.6572 12.0386 11.5535 1.10394 12.4057C1.03947 12.4106 0.975174 12.3944 0.920721 12.3596C0.866268 12.3247 0.824608 12.2731 0.802014 12.2125C0.77942 12.152 0.777115 12.0857 0.795447 12.0237C0.813778 11.9617 0.851753 11.9074 0.903654 11.8688C3.03053 10.5644 5.47401 9.8673 7.96899 9.85319C8.80552 9.83925 9.64186 9.89054 10.4704 10.0066C11.7263 10.1879 12.961 10.4933 14.1565 10.9185C15.015 11.2267 15.8545 11.5853 16.6707 11.9924C17.713 12.5101 18.7221 13.0921 19.692 13.7353C31.4278 21.4441 35.459 28.5904 49.8284 25.6245C49.8989 25.6021 49.9753 25.6068 50.0426 25.6376C50.1099 25.6684 50.1633 25.7231 50.1926 25.7911C50.2218 25.8591 50.2247 25.9355 50.2007 26.0055C50.1767 26.0756 50.1275 26.1342 50.0627 26.1699Z" fill="#2B67F6"/>
</g>
</svg>
