<svg width="16" height="16" viewBox="0 0 16 16" fill="none" xmlns="http://www.w3.org/2000/svg">
<g id="mynaui:mountain" clip-path="url(#clip0_581_5673)">
<path id="Vector" d="M8.79506 10.0951L10.4678 7.65285M10.4678 7.65285L10.6661 7.36507C10.7938 7.17458 10.9711 7.02137 11.1796 6.9215C11.3881 6.82162 11.62 6.77874 11.8511 6.79734C12.0822 6.81595 12.3039 6.89535 12.4931 7.02725C12.6823 7.15915 12.8321 7.33868 12.9266 7.54707L14.9778 11.8568C15.4013 12.745 14.7645 13.7779 13.795 13.7779H2.20542C1.2383 13.7779 0.601462 12.7512 1.01944 11.863L5.60848 2.09403C5.71092 1.86577 5.87908 1.67208 6.09217 1.53691C6.30526 1.40175 6.55392 1.33103 6.8074 1.33351C7.06089 1.336 7.30807 1.41157 7.51838 1.55088C7.7287 1.6902 7.89291 1.88715 7.99071 2.11736L10.4678 7.65285Z" stroke="#2B67F6" stroke-width="1.2" stroke-linecap="round" stroke-linejoin="round"/>
</g>
<defs>
<clipPath id="clip0_581_5673">
<rect width="16" height="16" fill="white"/>
</clipPath>
</defs>
</svg>
