<svg width="12" height="12" viewBox="0 0 12 12" fill="none" xmlns="http://www.w3.org/2000/svg">
<g id="mynaui:mountain">
<path id="Vector" d="M6.59611 7.57123L7.85063 5.73955M7.85063 5.73955L7.99937 5.52371C8.09515 5.38084 8.22817 5.26594 8.38453 5.19103C8.54088 5.11613 8.71482 5.08397 8.88813 5.09792C9.06144 5.11187 9.22775 5.17143 9.36966 5.27035C9.51157 5.36927 9.62387 5.50392 9.69478 5.66022L11.2332 8.89249C11.5508 9.55866 11.0732 10.3333 10.346 10.3333H1.65388C0.928544 10.3333 0.450914 9.56333 0.764396 8.89716L4.20618 1.57043C4.28301 1.39924 4.40913 1.25397 4.56894 1.1526C4.72876 1.05122 4.91526 0.998185 5.10537 1.00005C5.29548 1.00191 5.48087 1.05859 5.6386 1.16308C5.79634 1.26756 5.9195 1.41527 5.99285 1.58793L7.85063 5.73955Z" stroke="white" stroke-width="1.2" stroke-linecap="round" stroke-linejoin="round"/>
</g>
</svg>
