<svg width="16" height="17" viewBox="0 0 16 17" fill="none" xmlns="http://www.w3.org/2000/svg">
<g id="mynaui:mountain">
<path id="Vector" d="M8.79506 10.5949L10.4678 8.15265L8.79506 10.5949ZM10.4678 8.15265L10.6661 7.86487C10.7938 7.67438 10.9711 7.52117 11.1796 7.4213C11.3881 7.32142 11.62 7.27854 11.8511 7.29714C12.0822 7.31575 12.3039 7.39515 12.4931 7.52705C12.6823 7.65895 12.8321 7.83848 12.9266 8.04687L14.9778 12.3566C15.4013 13.2448 14.7645 14.2777 13.795 14.2777H2.20542C1.2383 14.2777 0.601462 13.251 1.01944 12.3628L5.60848 2.59383C5.71092 2.36558 5.87908 2.17188 6.09217 2.03672C6.30526 1.90155 6.55392 1.83083 6.8074 1.83332C7.06089 1.8358 7.30807 1.91137 7.51838 2.05069C7.7287 2.19 7.89291 2.38695 7.99071 2.61717L10.4678 8.15265Z" fill="white"/>
<path id="Line 1771 (Stroke)" fill-rule="evenodd" clip-rule="evenodd" d="M7.99976 12L10.2013 6.9009L11.0013 7.5009L8.79976 12.6L7.99976 12Z" fill="#00004C"/>
</g>
</svg>
