<svg width="22" height="22" viewBox="0 0 22 22" fill="none" xmlns="http://www.w3.org/2000/svg">
<g id="mynaui:boat">
<path id="Vector" d="M4.4 15.7612L3.85275 12.6968C3.77552 12.2649 3.85569 11.8197 4.07872 11.4419C4.30175 11.0642 4.65284 10.7789 5.06825 10.6379L5.225 10.5848M5.225 10.5848L10.4115 8.82475C10.7932 8.69539 11.2068 8.69539 11.5885 8.82475L16.775 10.5848M5.225 10.5848V7.10142C5.225 6.61519 5.41815 6.14887 5.76197 5.80505C6.10579 5.46124 6.5721 5.26808 7.05833 5.26808H9.35M16.775 10.5848L16.9318 10.6379C17.3472 10.7789 17.6983 11.0642 17.9213 11.4419C18.1443 11.8197 18.2245 12.2649 18.1473 12.6968L17.6 15.7603M16.775 10.5848V7.10142C16.775 6.61519 16.5818 6.14887 16.238 5.80505C15.8942 5.46124 15.4279 5.26808 14.9417 5.26808H12.65M9.35 5.26808H12.65M9.35 5.26808V4.4C9.35 3.96239 9.52384 3.54271 9.83327 3.23327C10.1427 2.92384 10.5624 2.75 11 2.75C11.4376 2.75 11.8573 2.92384 12.1667 3.23327C12.4762 3.54271 12.65 3.96239 12.65 4.4V5.26808M2.75 18.6991C3.34308 19.3013 4.78683 19.4718 6.16458 18.8971C7.11058 18.5029 8.30592 18.4928 9.273 18.832C10.3926 19.2143 11.6074 19.2143 12.727 18.832C13.6941 18.4928 14.8894 18.502 15.8345 18.8962C17.2132 19.4718 18.6578 19.3013 19.25 18.6982" stroke="#2B67F6" stroke-width="1.25" stroke-linecap="round" stroke-linejoin="round"/>
</g>
</svg>
