<svg width="20" height="20" viewBox="0 0 20 20" fill="none" xmlns="http://www.w3.org/2000/svg">
<rect x="1.57349" y="1.57373" width="16.8529" height="16.8529" rx="8.42647" stroke="#2B67F6" stroke-width="1.5"/>
<path d="M13.5384 6.46289L6.46362 13.5376" stroke="#2B67F6" stroke-width="1.5" stroke-linecap="round" stroke-linejoin="round"/>
<path d="M7.22233 8.48422C7.92006 8.48422 8.48568 7.9186 8.48568 7.22087C8.48568 6.52314 7.92006 5.95752 7.22233 5.95752C6.5246 5.95752 5.95898 6.52314 5.95898 7.22087C5.95898 7.9186 6.5246 8.48422 7.22233 8.48422Z" stroke="#2B67F6" stroke-width="1.5" stroke-linecap="round" stroke-linejoin="round"/>
<path d="M12.7812 14.0431C13.4789 14.0431 14.0445 13.4774 14.0445 12.7797C14.0445 12.082 13.4789 11.5164 12.7812 11.5164C12.0834 11.5164 11.5178 12.082 11.5178 12.7797C11.5178 13.4774 12.0834 14.0431 12.7812 14.0431Z" stroke="#2B67F6" stroke-width="1.5" stroke-linecap="round" stroke-linejoin="round"/>
</svg>
