<svg width="28" height="28" viewBox="0 0 28 28" fill="none" xmlns="http://www.w3.org/2000/svg">
<g id="menu">
<path id="Vector" d="M23.8107 18.9738V21.9846C23.8118 22.2642 23.7544 22.5408 23.6422 22.7969C23.53 23.053 23.3655 23.2829 23.1591 23.4719C22.9527 23.6608 22.7091 23.8047 22.4438 23.8942C22.1785 23.9838 21.8974 24.017 21.6185 23.9919C18.5241 23.6563 15.5517 22.601 12.9402 20.9108C10.5105 19.3699 8.45054 17.3141 6.90662 14.8892C5.20714 12.271 4.14952 9.29008 3.81944 6.18795C3.79431 5.91042 3.82736 5.63071 3.91648 5.36663C4.0056 5.10254 4.14884 4.85987 4.33709 4.65407C4.52533 4.44826 4.75445 4.28383 5.00986 4.17123C5.26526 4.05864 5.54136 4.00036 5.82057 4.0001H8.83736C9.32538 3.9953 9.7985 4.16778 10.1685 4.48537C10.5386 4.80297 10.7802 5.24401 10.8485 5.72629C10.9759 6.68982 11.212 7.63587 11.5525 8.54642C11.6878 8.90563 11.717 9.29602 11.6368 9.67133C11.5566 10.0466 11.3703 10.3911 11.0999 10.664L9.82284 11.9386C11.2544 14.4512 13.3389 16.5315 15.8564 17.9602L17.1335 16.6856C17.4069 16.4158 17.7521 16.2298 18.1282 16.1498C18.5042 16.0698 18.8954 16.099 19.2553 16.234C20.1677 16.5738 21.1156 16.8095 22.081 16.9365C22.5695 17.0053 23.0156 17.2509 23.3345 17.6265C23.6534 18.0021 23.8229 18.4817 23.8107 18.9738Z" stroke="white" stroke-width="1.5" stroke-linecap="round" stroke-linejoin="round"/>
</g>
</svg>
