<svg width="20" height="20" viewBox="0 0 20 20" fill="none" xmlns="http://www.w3.org/2000/svg">
<g id="Frame" clip-path="url(#clip0_526_4319)">
<path id="Vector" d="M14.509 3.83251L11.523 6.81852C11.3906 6.95087 11.1994 7.00568 11.017 6.96361L3.28665 5.17964C3.10424 5.13759 2.91304 5.19243 2.78074 5.32473L2.2056 5.89987C1.95584 6.14963 2.0073 6.56753 2.31015 6.74921L7.51526 9.87232C7.81813 10.054 7.86957 10.4719 7.61981 10.7217L5.72666 12.6148C5.61592 12.7256 5.46283 12.7831 5.30666 12.7726L2.71536 12.5999C2.16555 12.5633 1.91719 13.2743 2.37024 13.5878L4.83159 15.2919C4.8852 15.329 4.93177 15.3755 4.96888 15.4291L6.67292 17.8905C6.98646 18.3435 7.69748 18.0952 7.66088 17.5454L7.48809 14.9541C7.47766 14.7979 7.53517 14.6448 7.64591 14.5341L9.53906 12.6409C9.78882 12.3912 10.2067 12.4426 10.3884 12.7455L13.5115 17.9506C13.6932 18.2535 14.1111 18.3049 14.3609 18.0551L14.936 17.48C15.0683 17.3477 15.1231 17.1565 15.0811 16.9741L13.2971 9.24368C13.255 9.06133 13.3099 8.87012 13.4422 8.73777L16.4282 5.75177C16.9582 5.22178 16.9582 4.36248 16.4282 3.83251C15.8982 3.30254 15.039 3.30253 14.509 3.83251Z" stroke="#FF8A4C" stroke-width="1.33333" stroke-linecap="round" stroke-linejoin="round"/>
</g>
<defs>
<clipPath id="clip0_526_4319">
<rect width="20" height="20" fill="white"/>
</clipPath>
</defs>
</svg>
