<svg width="65" height="65" viewBox="0 0 65 65" fill="none" xmlns="http://www.w3.org/2000/svg">
<circle cx="32.5" cy="32.0321" r="32" fill="#2B67F6"/>
<path d="M46 31.2779C46.005 33.1844 45.5595 35.0651 44.7 36.7668C43.6808 38.806 42.1141 40.5212 40.1752 41.7202C38.2363 42.9193 36.0019 43.5548 33.7222 43.5557C31.8157 43.5607 29.9351 43.1153 28.2333 42.2557L20 45.0002L22.7444 36.7668C21.8849 35.0651 21.4395 33.1844 21.4444 31.2779C21.4453 28.9983 22.0809 26.7638 23.2799 24.825C24.479 22.8861 26.1941 21.3193 28.2333 20.3002C29.9351 19.4406 31.8157 18.9952 33.7222 19.0002H34.4444C37.4552 19.1663 40.2988 20.437 42.431 22.5692C44.5631 24.7013 45.8339 27.545 46 30.5557V31.2779Z" stroke="white" stroke-width="2" stroke-linecap="round" stroke-linejoin="round"/>
<path d="M33.6729 35.9024V30.4858" stroke="white" stroke-width="2" stroke-linecap="round" stroke-linejoin="round"/>
<path d="M33.6729 26.1525H33.6829" stroke="white" stroke-width="2" stroke-linecap="round" stroke-linejoin="round"/>
</svg>
