<svg width="64" height="65" viewBox="0 0 64 65" fill="none" xmlns="http://www.w3.org/2000/svg">
<circle cx="32" cy="32.0321" r="32" fill="#2B67F6"/>
<g clip-path="url(#clip0_356_10138)">
<path d="M27.0105 43.5193C27.5278 44.2668 28.701 43.857 28.6406 42.9498M27.0105 43.5193L24.1988 39.4581L28.6406 42.9498M27.0105 43.5193L26.1883 44.0885L26.1882 44.0884M27.0105 43.5193L26.1882 44.0884M28.6406 42.9498L28.3555 38.6742L28.6406 42.9498ZM26.1882 44.0884C27.2836 45.671 29.7661 44.8027 29.6384 42.8834L29.6384 42.8833L29.3564 38.6549M26.1882 44.0884L23.3874 40.0429M29.3564 38.6549L24.8228 34.0771L24.8227 34.0771M29.3564 38.6549L32.3523 35.6591L37.4366 44.1329C37.4367 44.1329 37.4367 44.1329 37.4367 44.133C38.0712 45.1906 39.5306 45.3701 40.4027 44.498L41.3517 43.5491C41.8139 43.0869 42.0051 42.4192 41.8584 41.7826L41.8583 41.7823L38.9278 29.0835L43.8138 24.1975C45.0788 22.9325 45.0788 20.8815 43.8138 19.6165C42.5488 18.3516 40.4978 18.3515 39.2328 19.6165L34.3468 24.5025L21.648 21.572L21.6478 21.5719C21.011 21.4251 20.3434 21.6165 19.8813 22.0787L18.9323 23.0276C18.0602 23.8997 18.2398 25.3591 19.2974 25.9937C19.2974 25.9937 19.2974 25.9937 19.2975 25.9937L27.7713 31.0781M29.3564 38.6549L27.7713 31.0781M23.3874 40.0429L23.4028 40.0535M23.3874 40.0429L23.3768 40.0276M23.3874 40.0429L19.3419 37.2422M23.4028 40.0535C23.4029 40.0536 23.403 40.0537 23.4032 40.0538L23.4031 40.0537L23.4028 40.0535ZM23.4028 40.0535C23.3926 40.0464 23.3839 40.0378 23.3768 40.0276M23.3768 40.0276L23.3766 40.0273L23.3765 40.0272C23.3766 40.0273 23.3767 40.0275 23.3768 40.0276ZM19.3419 37.2422L19.911 36.4199L19.3418 37.2421L19.3419 37.2422ZM19.3419 37.2422C17.7594 36.1468 18.6275 33.6642 20.5469 33.7919L20.547 33.792L24.7754 34.0739M24.7754 34.0739L24.742 34.1073C24.7631 34.0862 24.7925 34.0751 24.8227 34.0771M24.7754 34.0739L27.7713 31.0781M24.7754 34.0739L24.8227 34.0771M24.8227 34.0771L27.7713 31.0781M27.8858 31.1468C27.8858 31.1468 27.8857 31.1467 27.8857 31.1467L27.8858 31.1468ZM32.2835 35.5444L32.2835 35.5445L32.2835 35.5444Z" stroke="white" stroke-width="2" stroke-linecap="round" stroke-linejoin="round"/>
</g>
<defs>
<clipPath id="clip0_356_10138">
<rect width="33" height="33" fill="white" transform="translate(16 16.0001)"/>
</clipPath>
</defs>
</svg>
