<svg width="675" height="123" viewBox="0 0 675 123" fill="none" xmlns="http://www.w3.org/2000/svg">
<mask id="path-1-inside-1_661_3752" fill="white">
<path d="M11.7615 58.3571V54.9886H5.94326V53.7637H4.10592V51.0077H36.5657L37.7906 48.2517H110.366V43.6583H132.414L134.864 39.3711V35.6965H137.62V36.3089H172.529L173.754 33.2467L185.697 30.7969L192.128 13.0358H197.64L200.09 5.07401H201.621V0.786865H203.764V5.07401H205.295V0.786865H208.051V5.07401H209.583V0.786865H212.032V5.07401H214.788V0.786865H217.238V5.07401H219.382V0.786865H221.831V5.07401H223.669V29.8782H252.148V31.4093H281.545V28.3471H287.823V26.6495L291.651 26.5097V28.3471H294.1V31.4093H319.823L317.68 40.596H349.833V47.9454H364.838L366.369 49.4766H410.16L411.691 47.333H438.638V43.6583H455.174V40.596H479.06V33.8591H497.127V36.0027H506.62L509.07 14.8732L510.907 13.0358L512.439 1.70554V36.0027H528.362L531.731 40.596H566.334L564.19 45.1894H572.152L576.746 51.3139V56.2135H582.87L595.732 58.6633L594.507 69.0749H599.712L603.387 71.5247V74.8932H607.981L611.961 77.6492V81.9363L645.646 83.4675L650.24 86.5297H672.594L674.125 88.3671L633.397 121.746L242.601 122.664H2.26857L5.63704 107.965L0.125 91.1231V86.8359H8.69928V84.0799H2.26857V82.5488H1.04367V79.4865H8.69928V76.7305H2.26857V75.5056H1.04367L0.737449 73.0558H10.2304V69.6874H3.79969V68.4625H2.26857V65.4002H10.5366V62.338H5.02459V61.1131H3.18724V58.3571H11.7615Z"/>
</mask>
<path d="M11.7615 58.3571V54.9886H5.94326V53.7637H4.10592V51.0077H36.5657L37.7906 48.2517H110.366V43.6583H132.414L134.864 39.3711V35.6965H137.62V36.3089H172.529L173.754 33.2467L185.697 30.7969L192.128 13.0358H197.64L200.09 5.07401H201.621V0.786865H203.764V5.07401H205.295V0.786865H208.051V5.07401H209.583V0.786865H212.032V5.07401H214.788V0.786865H217.238V5.07401H219.382V0.786865H221.831V5.07401H223.669V29.8782H252.148V31.4093H281.545V28.3471H287.823V26.6495L291.651 26.5097V28.3471H294.1V31.4093H319.823L317.68 40.596H349.833V47.9454H364.838L366.369 49.4766H410.16L411.691 47.333H438.638V43.6583H455.174V40.596H479.06V33.8591H497.127V36.0027H506.62L509.07 14.8732L510.907 13.0358L512.439 1.70554V36.0027H528.362L531.731 40.596H566.334L564.19 45.1894H572.152L576.746 51.3139V56.2135H582.87L595.732 58.6633L594.507 69.0749H599.712L603.387 71.5247V74.8932H607.981L611.961 77.6492V81.9363L645.646 83.4675L650.24 86.5297H672.594L674.125 88.3671L633.397 121.746L242.601 122.664H2.26857L5.63704 107.965L0.125 91.1231V86.8359H8.69928V84.0799H2.26857V82.5488H1.04367V79.4865H8.69928V76.7305H2.26857V75.5056H1.04367L0.737449 73.0558H10.2304V69.6874H3.79969V68.4625H2.26857V65.4002H10.5366V62.338H5.02459V61.1131H3.18724V58.3571H11.7615Z" stroke="black" stroke-width="1.2" mask="url(#path-1-inside-1_661_3752)"/>
</svg>
