<svg width="457" height="83" viewBox="0 0 457 83" fill="none" xmlns="http://www.w3.org/2000/svg">
<mask id="path-1-inside-1_712_7545" fill="white">
<path d="M7.89901 39.0793V36.7927H3.9495V35.9613H2.70229V34.0904H24.7364L25.5678 32.2196H74.8327V29.1016H89.7992L91.4622 26.1914V23.697H93.333V24.1128H117.03L117.861 22.0341L125.968 20.3711L130.334 8.31474H134.075L135.738 2.91016H136.778V0H138.233V2.91016H139.272V0H141.143V2.91016H142.182V0H143.845V2.91016H145.716V0H147.379V2.91016H148.834V0H150.497V2.91016H151.744V19.7475H171.076V20.7869H191.031V18.7082H195.293V17.5558L197.891 17.461V18.7082H199.554V20.7869H217.015L215.56 27.0229H237.386V32.0118H247.571L248.611 33.0511H278.336L279.375 31.596H297.668V29.1016H308.893V27.0229H325.106V22.4498H337.371V23.9049H343.815L345.478 9.56195L346.725 8.31474L347.764 0.623606V23.9049H358.573L360.86 27.0229H384.349L382.894 30.1409H388.298L391.417 34.2983V37.6242H395.574L404.304 39.2872L403.473 46.3547H407.007L409.501 48.0176V50.3042H412.619L415.321 52.175V55.0852L438.187 56.1245L441.305 58.2032H456.479L457.519 59.4504L429.872 82.1081L164.595 82.7317H1.45508L3.74163 72.754L0 61.3212V58.4111H5.82032V56.5403H1.45508V55.5009H0.623606V53.4222H5.82032V51.5514H1.45508V50.7199H0.623606L0.415737 49.057H6.85966V46.7704H2.49442V45.939H1.45508V43.8603H7.06753V41.7816H3.3259V40.9501H2.07869V39.0793H7.89901Z"/>
</mask>
<path d="M7.89901 39.0793V36.7927H3.9495V35.9613H2.70229V34.0904H24.7364L25.5678 32.2196H74.8327V29.1016H89.7992L91.4622 26.1914V23.697H93.333V24.1128H117.03L117.861 22.0341L125.968 20.3711L130.334 8.31474H134.075L135.738 2.91016H136.778V0H138.233V2.91016H139.272V0H141.143V2.91016H142.182V0H143.845V2.91016H145.716V0H147.379V2.91016H148.834V0H150.497V2.91016H151.744V19.7475H171.076V20.7869H191.031V18.7082H195.293V17.5558L197.891 17.461V18.7082H199.554V20.7869H217.015L215.56 27.0229H237.386V32.0118H247.571L248.611 33.0511H278.336L279.375 31.596H297.668V29.1016H308.893V27.0229H325.106V22.4498H337.371V23.9049H343.815L345.478 9.56195L346.725 8.31474L347.764 0.623606V23.9049H358.573L360.86 27.0229H384.349L382.894 30.1409H388.298L391.417 34.2983V37.6242H395.574L404.304 39.2872L403.473 46.3547H407.007L409.501 48.0176V50.3042H412.619L415.321 52.175V55.0852L438.187 56.1245L441.305 58.2032H456.479L457.519 59.4504L429.872 82.1081L164.595 82.7317H1.45508L3.74163 72.754L0 61.3212V58.4111H5.82032V56.5403H1.45508V55.5009H0.623606V53.4222H5.82032V51.5514H1.45508V50.7199H0.623606L0.415737 49.057H6.85966V46.7704H2.49442V45.939H1.45508V43.8603H7.06753V41.7816H3.3259V40.9501H2.07869V39.0793H7.89901Z" stroke="black" stroke-width="1.2" mask="url(#path-1-inside-1_712_7545)"/>
</svg>
