<svg width="13" height="13" viewBox="0 0 13 13" fill="none" xmlns="http://www.w3.org/2000/svg">
<g id="star">
<path id="Vector" d="M6.37196 2.63781C6.55538 2.26622 7.08525 2.26622 7.26867 2.63781L8.24909 4.62404C8.32186 4.77146 8.46245 4.87369 8.62513 4.89747L10.8184 5.21805C11.2284 5.27797 11.3918 5.78189 11.095 6.07097L9.50871 7.616C9.39077 7.73087 9.33694 7.89643 9.36477 8.0587L9.73903 10.2408C9.80909 10.6493 9.38031 10.9608 9.0135 10.7679L7.05304 9.73688C6.90735 9.66026 6.73328 9.66026 6.58759 9.73688L4.62713 10.7679C4.26031 10.9608 3.83154 10.6493 3.9016 10.2408L4.27586 8.0587C4.30369 7.89643 4.24985 7.73087 4.13192 7.616L2.54565 6.07097C2.24885 5.78189 2.41225 5.27797 2.8222 5.21805L5.0155 4.89747C5.17817 4.87369 5.31877 4.77146 5.39154 4.62404L6.37196 2.63781Z" fill="#FF8A4C"/>
</g>
</svg>
