<svg width="22" height="23" viewBox="0 0 22 23" fill="none" xmlns="http://www.w3.org/2000/svg">
<g id="teenyicons:skype-outline" clip-path="url(#clip0_404_1093)">
<path id="Vector" d="M20.1785 12.843L19.4593 12.7473C19.4353 12.9231 19.4765 13.1016 19.5753 13.249L20.1785 12.843ZM9.782 2.4465L9.376 3.04825C9.52243 3.14682 9.69978 3.18858 9.8748 3.1657L9.782 2.4465ZM1.8215 10.407L2.5407 10.5013C2.56436 10.3259 2.5231 10.148 2.4247 10.001L1.8215 10.407ZM12.218 20.8035L12.6226 20.2018C12.4755 20.1033 12.2976 20.0621 12.1223 20.0858L12.218 20.8035ZM20.8962 12.9402C20.9528 12.5197 20.992 12.0803 20.992 11.625H19.542C19.542 11.9977 19.51 12.3689 19.4593 12.7473L20.8962 12.9402ZM20.992 11.625C20.9916 8.97509 19.9387 6.43382 18.065 4.56005C16.1912 2.68628 13.6499 1.63344 11 1.63305V3.08305C13.2653 3.08344 15.4378 3.98352 17.0396 5.58536C18.6415 7.1872 19.5416 9.35966 19.542 11.625H20.992ZM11 1.63305C10.561 1.63634 10.1227 1.66782 9.68775 1.7273L9.8748 3.1657C10.2576 3.1164 10.6288 3.08305 11 3.08305V1.63305ZM10.1851 1.84475C9.12173 1.12972 7.86906 0.748519 6.58765 0.750004V2.2C7.62005 2.2 8.57995 2.5132 9.376 3.04825L10.1851 1.84475ZM6.58765 0.750004C5.73891 0.749814 4.89845 0.916845 4.11428 1.24156C3.3301 1.56627 2.61759 2.0423 2.01744 2.64245C1.41729 3.2426 0.941263 3.95511 0.616552 4.73928C0.291841 5.52345 0.12481 6.36391 0.125 7.21265H1.575C1.57481 6.55433 1.70434 5.90242 1.95618 5.29417C2.20802 4.68592 2.57724 4.13326 3.04275 3.66775C3.50825 3.20225 4.06092 2.83302 4.66917 2.58118C5.27742 2.32934 5.92933 2.19981 6.58765 2.2V0.750004ZM0.125 7.21265C0.125 8.54375 0.52955 9.78205 1.21975 10.8101L2.4247 10.001C1.87034 9.17688 1.57349 8.20588 1.575 7.21265H0.125ZM1.10375 10.3113C1.04294 10.7466 1.01097 11.1855 1.00805 11.625H2.45805C2.45805 11.2524 2.48995 10.8812 2.5407 10.5013L1.10375 10.3113ZM1.00805 11.625C1.00805 14.275 2.06077 16.8165 3.93462 18.6904C5.80848 20.5642 8.34997 21.617 11 21.617V20.167C8.73453 20.167 6.56186 19.267 4.95993 17.6651C3.358 16.0631 2.45805 13.8905 2.45805 11.625H1.00805ZM11 21.617C11.4553 21.617 11.8932 21.5778 12.3137 21.5213L12.1223 20.0858C11.7504 20.1375 11.3755 20.1646 11 20.167V21.617ZM11.8134 21.4053C12.8429 22.0969 14.0813 22.5 15.4138 22.5V21.05C14.4196 21.0518 13.4476 20.7564 12.6226 20.2018L11.8134 21.4053ZM15.4138 22.5C17.1273 22.4996 18.7705 21.8188 19.9821 20.6071C21.1938 19.3955 21.8746 17.7523 21.875 16.0388H20.425C20.4246 17.3677 19.8965 18.6421 18.9568 19.5818C18.0171 20.5215 16.7427 21.0496 15.4138 21.05V22.5ZM21.875 16.0388C21.8761 14.7568 21.4944 13.5036 20.7788 12.4399L19.5753 13.249C20.1118 14.0465 20.425 15.0035 20.425 16.0388H21.875ZM10.275 12.35H11.725V10.9H10.275V12.35ZM14.5482 8.4002C14.27 7.84423 13.8426 7.37666 13.3138 7.04988C12.7849 6.7231 12.1756 6.55002 11.5539 6.55V8C12.2731 8 12.93 8.406 13.2504 9.0498L14.5482 8.4002ZM13.175 13.8C13.175 14.1846 13.0222 14.5534 12.7503 14.8253C12.4784 15.0972 12.1096 15.25 11.725 15.25V16.7C12.4941 16.7 13.2318 16.3945 13.7756 15.8506C14.3195 15.3068 14.625 14.5691 14.625 13.8H13.175ZM11.725 12.35C12.1096 12.35 12.4784 12.5028 12.7503 12.7747C13.0222 13.0466 13.175 13.4154 13.175 13.8H14.625C14.625 13.0309 14.3195 12.2933 13.7756 11.7494C13.2318 11.2055 12.4941 10.9 11.725 10.9V12.35ZM10.4461 15.25C9.7269 15.25 9.0686 14.844 8.7496 14.2002L7.45185 14.8498C7.72997 15.4058 8.15738 15.8733 8.68622 16.2001C9.21507 16.5269 9.82444 16.7 10.4461 16.7V15.25ZM7.375 9.45C7.375 10.2191 7.68053 10.9568 8.22439 11.5006C8.76825 12.0445 9.50587 12.35 10.275 12.35V10.9C9.89044 10.9 9.52162 10.7472 9.2497 10.4753C8.97777 10.2034 8.825 9.83457 8.825 9.45H7.375ZM8.825 9.45C8.825 9.06544 8.97777 8.69663 9.2497 8.4247C9.52162 8.15277 9.89044 8 10.275 8V6.55C9.50587 6.55 8.76825 6.85554 8.22439 7.39939C7.68053 7.94325 7.375 8.68088 7.375 9.45H8.825ZM11.725 15.25H10.4461V16.7H11.725V15.25ZM11.5539 6.55H10.275V8H11.5539V6.55Z" fill="#2B67F6"/>
</g>
<defs>
<clipPath id="clip0_404_1093">
<rect width="21.75" height="21.75" fill="white" transform="translate(0.125 0.75)"/>
</clipPath>
</defs>
</svg>
