<svg width="14" height="15" viewBox="0 0 14 15" fill="none" xmlns="http://www.w3.org/2000/svg">
<path d="M5.26047 1.16334C4.83076 1.52965 4.29643 1.75103 3.73357 1.79597C3.09793 1.84677 2.50117 2.12232 2.05027 2.57322C1.59937 3.02412 1.32382 3.62088 1.27302 4.25652C1.22808 4.81938 1.0067 5.35371 0.640388 5.78342C0.227024 6.26876 0 6.88544 0 7.52295C0 8.16046 0.227024 8.77714 0.640388 9.26248C1.0067 9.69219 1.22808 10.2265 1.27302 10.7894C1.32382 11.425 1.59937 12.0218 2.05027 12.4727C2.50117 12.9236 3.09793 13.1991 3.73357 13.2499C4.29643 13.2949 4.83076 13.5163 5.26047 13.8826C5.74581 14.2959 6.36249 14.5229 7 14.5229C7.63751 14.5229 8.25419 14.2959 8.73953 13.8826C9.16924 13.5163 9.70357 13.2949 10.2664 13.2499C10.9021 13.1991 11.4988 12.9236 11.9497 12.4727C12.4006 12.0218 12.6762 11.425 12.727 10.7894C12.7719 10.2265 12.9933 9.69219 13.3596 9.26248C13.773 8.77714 14 8.16046 14 7.52295C14 6.88544 13.773 6.26876 13.3596 5.78342C12.993 5.35379 12.7716 4.81915 12.727 4.25652C12.6762 3.62088 12.4006 3.02412 11.9497 2.57322C11.4988 2.12232 10.9021 1.84677 10.2664 1.79597C9.70357 1.75103 9.16924 1.52965 8.73953 1.16334C8.25419 0.749973 7.63751 0.522949 7 0.522949C6.36249 0.522949 5.74581 0.749973 5.26047 1.16334Z" fill="#FF8A4C"/>
<path d="M6.89453 3.9624V7.874" stroke="white" stroke-width="1.8352" stroke-linecap="round" stroke-linejoin="round"/>
<path d="M6.89453 11.0854H6.90457" stroke="white" stroke-width="1.8352" stroke-linecap="round" stroke-linejoin="round"/>
</svg>
