<svg width="20" height="20" viewBox="0 0 20 20" fill="none" xmlns="http://www.w3.org/2000/svg">
<g id="user-check">
<g id="Group 2204">
<path id="Vector" d="M17.7777 9.55353C17.7808 10.733 17.5052 11.8966 16.9735 12.9494C16.3429 14.211 15.3736 15.2721 14.1741 16.0139C12.9745 16.7558 11.5922 17.149 10.1818 17.1495C9.00227 17.1526 7.83873 16.877 6.78592 16.3452L1.69214 18.0432L3.39006 12.9494C2.85828 11.8966 2.58271 10.733 2.58578 9.55353C2.58633 8.14314 2.97953 6.76075 3.72136 5.56121C4.46318 4.36167 5.52432 3.39235 6.78592 2.76183C7.83873 2.23005 9.00227 1.95447 10.1818 1.95754H10.6286C12.4913 2.06031 14.2506 2.84651 15.5697 4.16562C16.8888 5.48472 17.675 7.24404 17.7777 9.10671V9.55353Z" stroke="#FF8A4C" stroke-width="1.36867" stroke-linecap="round" stroke-linejoin="round"/>
<path id="Vector_2" d="M10.1511 12.4146V9.06348" stroke="#FF8A4C" stroke-width="1.36867" stroke-linecap="round" stroke-linejoin="round"/>
<path id="Vector_3" d="M10.1511 6.38232H10.1567" stroke="#FF8A4C" stroke-width="1.36867" stroke-linecap="round" stroke-linejoin="round"/>
</g>
</g>
</svg>
