<svg width="17" height="18" viewBox="0 0 17 18" fill="none" xmlns="http://www.w3.org/2000/svg">
<path id="Vector" d="M8.16663 3.68758C8.54235 3.68758 8.90268 3.53833 9.16836 3.27265C9.43404 3.00697 9.58329 2.64664 9.58329 2.27091C9.58329 1.89519 9.43404 1.53486 9.16836 1.26918C8.90268 1.0035 8.54235 0.854248 8.16663 0.854248C7.7909 0.854248 7.43057 1.0035 7.16489 1.26918C6.89921 1.53486 6.74996 1.89519 6.74996 2.27091C6.74996 2.64664 6.89921 3.00697 7.16489 3.27265C7.43057 3.53833 7.7909 3.68758 8.16663 3.68758ZM8.16663 3.68758V17.1459M4.62496 11.1251C3.20829 11.1251 2.14579 10.4167 1.08329 9.00008H0.729126C0.729126 12.3151 2.89663 15.1222 5.89288 16.0834C6.74996 16.3667 7.45829 16.4376 8.07808 17.1459H8.25517C8.87496 16.4376 9.58329 16.3667 10.4411 16.0834C13.4359 15.1222 15.6041 12.3151 15.6041 9.00008H15.25C14.1875 10.4167 13.125 11.1251 11.7083 11.1251M4.62496 5.81258C4.62496 5.81258 6.39579 6.52091 8.16663 6.52091C9.93746 6.52091 11.7083 5.81258 11.7083 5.81258" stroke="#2B67F6" stroke-width="1.2" stroke-linecap="round" stroke-linejoin="round"/>
</svg>
