<svg width="19" height="18" viewBox="0 0 19 18" fill="none" xmlns="http://www.w3.org/2000/svg">
<g clip-path="url(#clip0_615_344)">
<path d="M13.5378 3.44912L10.8504 6.13652C10.7313 6.25564 10.5592 6.30497 10.3951 6.26711L3.43775 4.66153C3.27358 4.62368 3.1015 4.67304 2.98242 4.79211L2.4648 5.30973C2.24002 5.53452 2.28633 5.91063 2.5589 6.07414L7.2435 8.88494C7.51608 9.04848 7.56237 9.42457 7.33759 9.64935L5.63376 11.3532C5.53409 11.4529 5.39631 11.5046 5.25576 11.4952L2.92359 11.3397C2.42876 11.3068 2.20523 11.9467 2.61297 12.2289L4.82819 13.7625C4.87644 13.7959 4.91836 13.8378 4.95175 13.8861L6.48539 16.1013C6.76757 16.509 7.40749 16.2855 7.37456 15.7907L7.21904 13.4585C7.20965 13.318 7.26142 13.1802 7.36108 13.0805L9.06492 11.3767C9.2897 11.1519 9.6658 11.1982 9.82932 11.4708L12.6401 16.1554C12.8037 16.428 13.1798 16.4743 13.4045 16.2495L13.9222 15.7318C14.0412 15.6128 14.0906 15.4407 14.0527 15.2765L12.4472 8.31917C12.4093 8.15505 12.4586 7.98296 12.5778 7.86385L15.2652 5.17644C15.7421 4.69945 15.7421 3.92609 15.2652 3.44912C14.7882 2.97214 14.0148 2.97213 13.5378 3.44912Z" stroke="#FF8A4C" stroke-linecap="round" stroke-linejoin="round"/>
</g>
<defs>
<clipPath id="clip0_615_344">
<rect width="18" height="18" fill="white" transform="translate(0.477417)"/>
</clipPath>
</defs>
</svg>
