<svg width="19" height="19" viewBox="0 0 19 19" fill="none" xmlns="http://www.w3.org/2000/svg">
<rect x="2.39768" y="2.36569" width="14.0369" height="14.0369" rx="7.01847" stroke="#FF8A4C" stroke-width="1.04291"/>
<path d="M12.1981 6.60144L6.63257 12.167" stroke="#FF8A4C" stroke-width="1.04291" stroke-linecap="round" stroke-linejoin="round"/>
<path d="M7.22969 8.1912C7.77858 8.1912 8.22355 7.74623 8.22355 7.19734C8.22355 6.64845 7.77858 6.20349 7.22969 6.20349C6.6808 6.20349 6.23584 6.64845 6.23584 7.19734C6.23584 7.74623 6.6808 8.1912 7.22969 8.1912Z" stroke="#FF8A4C" stroke-width="1.04291" stroke-linecap="round" stroke-linejoin="round"/>
<path d="M11.6075 12.5644C12.1564 12.5644 12.6014 12.1194 12.6014 11.5705C12.6014 11.0216 12.1564 10.5767 11.6075 10.5767C11.0586 10.5767 10.6136 11.0216 10.6136 11.5705C10.6136 12.1194 11.0586 12.5644 11.6075 12.5644Z" stroke="#FF8A4C" stroke-width="1.04291" stroke-linecap="round" stroke-linejoin="round"/>
</svg>
